<svg xmlns="http://www.w3.org/2000/svg" version="1.1" xmlns:xlink="http://www.w3.org/1999/xlink" xmlns:svgjs="http://svgjs.dev/svgjs" width="1440" height="560" preserveAspectRatio="none" viewBox="0 0 1440 560"><g mask="url(&quot;#SvgjsMask1800&quot;)" fill="none"><rect width="1440" height="560" x="0" y="0" fill="url(&quot;#SvgjsLinearGradient1801&quot;)"></rect><path d="M32.857,87.58C55.312,88.682,81.071,86.653,92.407,67.238C103.799,47.727,92.995,24.21,81.06,5.027C69.981,-12.781,53.83,-28.372,32.857,-28.477C11.734,-28.583,-5.926,-13.923,-16.19,4.539C-26.142,22.439,-27.778,44.217,-17.363,61.851C-7.11,79.209,12.721,86.592,32.857,87.58" fill="rgba(102, 190, 160, 0.56)" class="triangle-float2"></path><path d="M29.222,90.626C51.646,90.861,73.984,80.951,84.691,61.247C95.008,42.26,89.918,19.07,77.84,1.152C67.168,-14.681,48.315,-20.855,29.222,-21.045C9.711,-21.24,-10.366,-16.125,-21.105,0.166C-32.908,18.071,-34.698,41.367,-24.272,60.107C-13.575,79.335,7.22,90.396,29.222,90.626" fill="rgba(102, 190, 160, 0.56)" class="triangle-float3"></path><path d="M69.445,151.267C103.412,154.015,141.778,150.514,160.174,121.828C179.605,91.526,173.471,50.786,152.761,21.343C134.661,-4.389,100.904,-7.342,69.445,-7.161C38.428,-6.982,3.523,-4.43,-12.225,22.293C-28.127,49.276,-15.739,82.491,1.017,108.952C16.395,133.237,40.795,148.949,69.445,151.267" fill="rgba(102, 190, 160, 0.56)" class="triangle-float2"></path><path d="M1475.062,293.908C1527.09,292.961,1573.416,263.926,1600.144,219.278C1627.681,173.279,1632.913,117.682,1609.401,69.501C1582.536,14.45,1536.309,-35.998,1475.062,-37.039C1412.501,-38.102,1361.02,9.067,1332.575,64.797C1306.678,115.536,1311.753,175.605,1341.837,223.979C1370.226,269.626,1421.316,294.886,1475.062,293.908" fill="rgba(102, 190, 160, 0.56)" class="triangle-float1"></path><path d="M1368.479,99.323C1392.41,100.418,1419.77,97.754,1431.702,76.981C1443.608,56.254,1432.269,31.197,1419.05,11.282C1407.478,-6.152,1389.404,-18.206,1368.479,-18.263C1347.455,-18.321,1328.244,-7.023,1317.426,11.004C1306.27,29.595,1303.69,52.849,1314.54,71.62C1325.381,90.375,1346.839,98.333,1368.479,99.323" fill="rgba(102, 190, 160, 0.56)" class="triangle-float1"></path><path d="M1376.402,110.247C1403.265,111.773,1434.281,112.837,1449.032,90.335C1464.689,66.451,1456.125,35.349,1441.632,10.741C1427.394,-13.434,1404.434,-34.142,1376.402,-32.986C1349.756,-31.887,1332.075,-7.949,1319.869,15.763C1308.892,37.086,1304.472,62.241,1316.786,82.821C1328.823,102.939,1352.996,108.917,1376.402,110.247" fill="rgba(102, 190, 160, 0.56)" class="triangle-float2"></path><path d="M25.338,528.46C45.429,528.766,65.72,519.83,74.957,501.986C83.646,485.202,75.831,466.004,66.035,449.841C56.702,434.441,43.345,420.097,25.338,420.11C7.348,420.123,-6.171,434.373,-15.26,449.898C-24.471,465.631,-30.104,484.319,-21.734,500.515C-12.755,517.889,5.783,528.163,25.338,528.46" fill="rgba(102, 190, 160, 0.56)" class="triangle-float1"></path><path d="M58.71,597.644C91.074,599.378,121.681,580.475,137.081,551.957C151.804,524.693,146.277,491.917,130.062,465.514C114.66,440.435,88.137,423.856,58.71,424.346C30.073,424.823,5.012,442.647,-8.645,467.822C-21.675,491.84,-18.934,520.017,-6.35,544.272C7.495,570.958,28.689,596.035,58.71,597.644" fill="rgba(102, 190, 160, 0.56)" class="triangle-float2"></path><path d="M27.03,521.953C46.721,522.76,68.407,521.596,79.655,505.413C92.267,487.266,93.408,462.198,81.498,443.583C70.298,426.076,47.755,421.605,27.03,423.159C9.131,424.501,-5.866,435.312,-14.913,450.814C-24.044,466.461,-27.822,485.781,-18.621,501.387C-9.536,516.796,9.157,521.221,27.03,521.953" fill="rgba(102, 190, 160, 0.56)" class="triangle-float2"></path><path d="M1444.151,674.227C1487.792,675.634,1533.502,666.021,1558.052,629.912C1585.612,589.375,1593.919,534.215,1567.348,493.023C1542.282,454.165,1490.271,449.988,1444.151,453.336C1404.725,456.198,1368.824,475.022,1348.474,508.912C1327.469,543.893,1321.862,587.639,1342.301,622.954C1362.707,658.213,1403.434,672.914,1444.151,674.227" fill="rgba(102, 190, 160, 0.56)" class="triangle-float3"></path><path d="M1454.725,717.175C1508.669,718.337,1564.506,700.409,1591.856,653.897C1619.516,606.858,1610.328,547.865,1581.544,501.505C1554.384,457.76,1506.179,431.065,1454.725,433.03C1406.357,434.877,1368.281,468.929,1343.64,510.59C1318.44,553.197,1304.016,604.602,1327.46,648.201C1351.952,693.75,1403.021,716.061,1454.725,717.175" fill="rgba(102, 190, 160, 0.56)" class="triangle-float2"></path><path d="M1429.837,657.907C1468.088,658.406,1502.569,636,1521.678,602.861C1540.768,569.755,1542.302,529.034,1523.253,495.904C1504.146,462.673,1468.15,444.333,1429.837,443.13C1389.093,441.85,1345.53,454.098,1325.674,489.699C1306.179,524.652,1320.983,566.493,1342.054,600.519C1361.781,632.375,1392.371,657.418,1429.837,657.907" fill="rgba(102, 190, 160, 0.56)" class="triangle-float1"></path></g><defs><mask id="SvgjsMask1800"><rect width="1440" height="560" fill="#ffffff"></rect></mask><linearGradient x1="15.28%" y1="-39.29%" x2="84.72%" y2="139.29%" gradientUnits="userSpaceOnUse" id="SvgjsLinearGradient1801"><stop stop-color="rgba(253, 139, 69, 0)" offset="0"></stop><stop stop-color="rgba(102, 190, 160, 0)" offset="1"></stop></linearGradient><style>
                @keyframes float1 {
                    0%{transform: translate(0, 0)}
                    50%{transform: translate(-10px, 0)}
                    100%{transform: translate(0, 0)}
                }

                .triangle-float1 {
                    animation: float1 5s infinite;
                }

                @keyframes float2 {
                    0%{transform: translate(0, 0)}
                    50%{transform: translate(-5px, -5px)}
                    100%{transform: translate(0, 0)}
                }

                .triangle-float2 {
                    animation: float2 4s infinite;
                }

                @keyframes float3 {
                    0%{transform: translate(0, 0)}
                    50%{transform: translate(0, -10px)}
                    100%{transform: translate(0, 0)}
                }

                .triangle-float3 {
                    animation: float3 6s infinite;
                }
            </style></defs></svg>