<!DOCTYPE svg PUBLIC "-//W3C//DTD SVG 1.1//EN" "http://www.w3.org/Graphics/SVG/1.1/DTD/svg11.dtd">
<!-- Uploaded to: SVG Repo, www.svgrepo.com, Transformed by: SVG Repo Mixer Tools -->
<svg fill="#ffe252" height="800px" width="800px" version="1.1" id="Capa_1" xmlns="http://www.w3.org/2000/svg" xmlns:xlink="http://www.w3.org/1999/xlink" viewBox="-79.55 -79.55 477.31 477.31" xml:space="preserve" stroke="#ffe252">
<g id="SVGRepo_bgCarrier" stroke-width="0">
<path transform="translate(-79.55, -79.55), scale(14.915937499999998)" d="M16,29.679302470660524C18.818307548672557,30.51942993987362,22.42958769637657,29.69856726963607,24.309450957021415,27.436978066286166C26.177443419935273,25.18967015059457,24.087523684678366,21.700188771327298,24.95253920940824,18.908856320434108C25.796334307091527,16.18600040544522,29.354266242500746,14.562595809656058,29.18088454586065,11.71727099727795C29.003407965362342,8.804746042835461,26.780792530964618,5.999939175919363,24.09624804920763,4.856470561420609C21.52107915272996,3.7595899434364375,18.769465971109113,5.697104894055347,16,6.102937581703852C13.768790198797117,6.429895153949169,11.471176958010659,5.977400766445663,9.46182442158058,7.000973340997348C7.207630735158224,8.149269019986964,5.417848196573708,9.963708896907608,4.137625280553026,12.14568080955638C2.5771301384022633,14.80533994187487,-0.14973457066391016,18.077414207075165,1.3981639567753383,20.744424131607257C3.0473176058672635,23.585895372285275,7.84674109994267,21.65010857238721,10.649103612264959,23.364877046393016C13.061434426689711,24.84098472741547,13.289741412703762,28.871384013027782,16,29.679302470660524" fill="#3cc6b9" strokewidth="0"/>
</g>
<g id="SVGRepo_tracerCarrier" stroke-linecap="round" stroke-linejoin="round"/>
<g id="SVGRepo_iconCarrier"> <g> <path d="M239.382,138.227c-43.469,0-78.833,35.365-78.833,78.834s35.364,78.833,78.833,78.833s78.833-35.364,78.833-78.833 S282.851,138.227,239.382,138.227z M239.382,270.894c-29.684,0-53.833-24.149-53.833-53.833c0-29.685,24.149-53.834,53.833-53.834 s53.833,24.149,53.833,53.834C293.215,246.744,269.066,270.894,239.382,270.894z"/> <path d="M173.477,119.821h-61.098l31.436-83.08c2.636-6.968-2.512-14.42-9.962-14.42H58.629c-4.428,0-8.395,2.74-9.962,6.882 L0.699,155.975c-2.629,6.947,2.482,14.384,9.91,14.42l84.867,0.413L53.299,282.165c-1.974,5.211,4.727,9.293,8.452,5.148 l58.841-65.476c-0.028-1.057-0.043-2.118-0.043-3.182C120.549,177.492,141.59,141.155,173.477,119.821z"/> <path d="M237.117,179.176c-2.695,0-5.114,1.654-6.092,4.165l-20.084,51.565c-0.764,1.963-0.511,4.176,0.678,5.915 c1.189,1.739,3.159,2.779,5.266,2.779c2.683,0,5.079-1.679,5.995-4.2l3.483-9.587c0.185-0.508,0.668-0.847,1.209-0.847h23.967 c0.532,0,1.01,0.328,1.201,0.825l3.697,9.617c0.971,2.525,3.397,4.192,6.102,4.192c2.17,0,4.198-1.076,5.414-2.873 c1.216-1.797,1.461-4.08,0.655-6.094l-20.561-51.349c-0.993-2.481-3.397-4.107-6.069-4.107H237.117z M232.507,218.112 c-0.42,0-0.813-0.205-1.054-0.548c-0.241-0.344-0.299-0.783-0.155-1.178l6.876-18.893c0.184-0.507,0.665-0.845,1.204-0.846 c0.539-0.002,1.022,0.333,1.21,0.838l7.015,18.893c0.147,0.395,0.091,0.836-0.15,1.182c-0.24,0.346-0.635,0.552-1.056,0.552 H232.507z"/> </g> </g>
</svg>