<svg xmlns="http://www.w3.org/2000/svg" width="20" height="20" viewBox="0 0 20 20">
  <g id="cloud-download" transform="translate(-2 -2)">
    <path id="Path_1" data-name="Path 1" d="M12,22c-1.886,0-2.828,0-3.414-.586S8,19.886,8,18s0-2.828.586-3.414S10.114,14,12,14s2.828,0,3.414.586S16,16.114,16,18s0,2.828-.586,3.414S13.886,22,12,22Zm1.8-3.084-1.333,1.333a.667.667,0,0,1-.943,0L10.2,18.916a.667.667,0,0,1,.943-.943l.2.2V16.222a.667.667,0,0,1,1.333,0v1.946l.2-.2a.667.667,0,1,1,.943.943Z" transform="translate(24 36) rotate(-180)" fill="#09213b" fill-rule="evenodd"/>
    <path id="Path_2" data-name="Path 2" d="M6.5,18v-.09a18.573,18.573,0,0,1,.087-2.3,3.466,3.466,0,0,1,.939-2.081,3.466,3.466,0,0,1,2.08-.938,18.573,18.573,0,0,1,2.3-.087h.179a18.573,18.573,0,0,1,2.3.087,3.225,3.225,0,0,1,3.019,3.019,18.226,18.226,0,0,1,.087,2.267,5.631,5.631,0,0,0,.655-10.857,5.719,5.719,0,0,0-11.393.632,5.576,5.576,0,0,0,.354,1.962,4.356,4.356,0,0,0-.83-.079,4.236,4.236,0,1,0,0,8.471Z" fill="#09213b"/>
  </g>
</svg>
