<svg xmlns="http://www.w3.org/2000/svg" xmlns:xlink="http://www.w3.org/1999/xlink" width="144.698" height="131.508" viewBox="0 0 144.698 131.508">
  <defs>
    <clipPath id="clip-path">
      <path id="Path_311" data-name="Path 311" d="M47.453,60.234h144.7V191.743H47.453Zm0,0"/>
    </clipPath>
  </defs>
  <g id="Group_809" data-name="Group 809" transform="translate(-47.453 -60.234)" clip-path="url(#clip-path)">
    <path id="Path_310" data-name="Path 310" d="M183.356,147.6a2.335,2.335,0,0,0,.2-2.2l-8.019-18.883a2.331,2.331,0,0,0-2.148-1.422H154.869a2.337,2.337,0,0,0-2.336,2.335v18.881a2.337,2.337,0,0,0,2.336,2.336h26.541A2.341,2.341,0,0,0,183.356,147.6ZM157.2,143.974V129.759h14.644l6.035,14.214ZM102.321,179.7a3.3,3.3,0,1,1-3.3-3.3A3.3,3.3,0,0,1,102.321,179.7Zm69.6,0a3.3,3.3,0,1,1-3.3-3.3A3.3,3.3,0,0,1,171.922,179.7ZM56.357,132.614a2.334,2.334,0,0,1,0-4.668H81.843a2.334,2.334,0,1,1,0,4.668Zm135.2,12.588-9.6-22.6a8.252,8.252,0,0,0-7.793-4.952h-24.4V109.3a7.181,7.181,0,0,0-7.173-7.173h-1.752a33.99,33.99,0,1,0-66.112,0H60.592a2.334,2.334,0,0,0,0,4.668h15.62a33.959,33.959,0,0,0,4.73,8.243H49.787a2.334,2.334,0,0,0,0,4.668H85.331a33.961,33.961,0,0,0,54.027-12.911h3.235a2.507,2.507,0,0,1,2.5,2.5v68.07H110.805a12.01,12.01,0,0,0-23.563,0H74.669a2.507,2.507,0,0,1-2.5-2.506V143.192a2.335,2.335,0,0,0-2.334-2.336H49.787a2.335,2.335,0,0,0,0,4.67H67.5v29.337a7.179,7.179,0,0,0,7.171,7.173H87.242a12.01,12.01,0,0,0,23.563,0h46.038a12.01,12.01,0,0,0,23.563,0h5.783a5.968,5.968,0,0,0,5.962-5.962V148.113A7.225,7.225,0,0,0,191.557,145.2Zm-83.773-21.668a29.323,29.323,0,1,1,29.321-29.323A29.356,29.356,0,0,1,107.785,123.534Zm-8.761,63.511a7.344,7.344,0,1,1,7.343-7.344A7.352,7.352,0,0,1,99.023,187.046Zm69.6,0a7.344,7.344,0,1,1,7.342-7.344A7.352,7.352,0,0,1,168.625,187.046Zm17.564-9.678h-5.783a12.01,12.01,0,0,0-23.563,0h-7.077V122.322h24.4a3.66,3.66,0,0,1,3.5,2.107l9.6,22.6a2.548,2.548,0,0,1,.224,1.087v10.27h-3.8a4.011,4.011,0,0,0-4.007,4.007v7.027a4.011,4.011,0,0,0,4.007,4.007h3.8v2.649A1.3,1.3,0,0,1,186.189,177.368Zm1.3-14.315v5.7H184.34v-5.7ZM117.4,99.285a6.689,6.689,0,0,1-1.572,5.324,9.77,9.77,0,0,1-5.71,2.978v1.1a2.334,2.334,0,1,1-4.667,0v-1.137a9.108,9.108,0,0,1-7.27-6.621,2.334,2.334,0,0,1,4.53-1.13c.631,2.528,3.257,3.366,5.316,3.32a6.173,6.173,0,0,0,4.271-1.564,2.058,2.058,0,0,0,.467-1.707c-.146-1.206-.885-2.685-5.338-3.417-6.819-1.119-8.413-4.689-8.548-7.488-.188-3.843,2.451-7.061,6.573-8.031V79.734a2.334,2.334,0,1,1,4.667,0V80.89a9.069,9.069,0,0,1,6.552,5.467,2.334,2.334,0,0,1-4.3,1.808,4.891,4.891,0,0,0-5.8-2.722c-.525.122-3.144.838-3.026,3.273.032.647.115,2.364,4.645,3.108C113.809,92.748,116.911,95.258,117.4,99.285ZM107.785,69a25.212,25.212,0,1,0,25.209,25.212A25.238,25.238,0,0,0,107.785,69Zm0,45.753a20.543,20.543,0,1,1,20.542-20.542A20.564,20.564,0,0,1,107.785,114.753Zm0,0" transform="translate(0 0.008)" fill="#ff5757"/>
  </g>
</svg>
