<svg xmlns="http://www.w3.org/2000/svg" xmlns:xlink="http://www.w3.org/1999/xlink" width="125.393" height="114.126" viewBox="0 0 125.393 114.126">
  <defs>
    <clipPath id="clip-path">
      <path id="Path_309" data-name="Path 309" d="M58.113,69.918H183.506V184.044H58.113Zm0,0"/>
    </clipPath>
  </defs>
  <g id="Group_808" data-name="Group 808" transform="translate(-58.113 -69.918)" clip-path="url(#clip-path)">
    <path id="Path_308" data-name="Path 308" d="M173.04,75.979a1.989,1.989,0,0,1-.451-3.953L181.3,71a1.987,1.987,0,0,1,2.2,1.751,1.964,1.964,0,0,1,.007.381l-.711,8.751a1.988,1.988,0,1,1-3.964-.312l.261-3.193-23.661,24.641a1.985,1.985,0,0,1-2.347.445L129.075,91.6l-16.107,14.052a30.1,30.1,0,0,0,1.384-6.487l13.107-11.435a1.99,1.99,0,0,1,2.3-.221l23.773,11.744L176.247,75.6ZM84.357,122.33A26.208,26.208,0,1,0,58.188,96.121,26.188,26.188,0,0,0,84.357,122.33Zm1.987-11.472v1.848a1.989,1.989,0,1,1-3.977,0v-1.884a11.3,11.3,0,0,1-4.462-1.709,9.108,9.108,0,0,1-3.871-5.467,1.985,1.985,0,1,1,3.854-.948,5.19,5.19,0,0,0,2.208,3.1,7.928,7.928,0,0,0,4.556,1.217c.284-.008.614-.032.986-.078a8.007,8.007,0,0,0,3.786-1.376,3.151,3.151,0,0,0,1.344-2.656c0-.094-.015-.233-.038-.414a4,4,0,0,0-2.054-3.033,13.31,13.31,0,0,0-4.615-1.469,15.078,15.078,0,0,1-5.747-2.013,7.18,7.18,0,0,1-3.46-5.927A7.725,7.725,0,0,1,77.8,83.5a10.165,10.165,0,0,1,4.4-2.026l.165-.03v-1.91a1.99,1.99,0,1,1,3.979,0v1.88c.267.045.534.1.8.169a9.753,9.753,0,0,1,6.75,5.8,1.989,1.989,0,1,1-3.667,1.541,5.846,5.846,0,0,0-4.047-3.483,7.259,7.259,0,0,0-3.2-.078A6.192,6.192,0,0,0,80.3,86.586a3.881,3.881,0,0,0-1.488,3.279,3.4,3.4,0,0,0,1.66,2.781A11.268,11.268,0,0,0,84.7,94.067a17.085,17.085,0,0,1,6.029,1.984,7.793,7.793,0,0,1,3.951,5.972,7.664,7.664,0,0,1,.051.789,6.948,6.948,0,0,1-2.913,5.908A11.835,11.835,0,0,1,86.344,110.858Zm81.433-6.745a2.493,2.493,0,0,0-2.488,2.489v74.954a2.493,2.493,0,0,0,2.488,2.489h11.258a2.493,2.493,0,0,0,2.486-2.489V106.6a2.493,2.493,0,0,0-2.486-2.489Zm-30.136,32.408H148.9a2.493,2.493,0,0,1,2.486,2.491v42.543a2.493,2.493,0,0,1-2.486,2.489H137.641a2.493,2.493,0,0,1-2.488-2.489V139.013A2.494,2.494,0,0,1,137.641,136.521ZM107.5,125.436H118.76a2.493,2.493,0,0,1,2.488,2.489v53.631a2.493,2.493,0,0,1-2.488,2.489H107.5a2.493,2.493,0,0,1-2.488-2.489V127.925A2.493,2.493,0,0,1,107.5,125.436ZM77.366,152.86H88.623a2.493,2.493,0,0,1,2.486,2.491v26.2a2.493,2.493,0,0,1-2.486,2.491H77.366a2.493,2.493,0,0,1-2.486-2.491v-26.2A2.493,2.493,0,0,1,77.366,152.86Zm0,0" transform="translate(-0.038 0.002)" fill="#11324d" fill-rule="evenodd"/>
  </g>
</svg>
