<svg xmlns="http://www.w3.org/2000/svg" width="17.049" height="17.058" viewBox="0 0 17.049 17.058">
  <path id="Icon" d="M561,438.057a1.048,1.048,0,0,1-.745-.307L556,433.5v-.79l-.27-.28A6.519,6.519,0,0,1,551.495,434a6.712,6.712,0,0,1-1.105-.093A6.5,6.5,0,0,1,551.5,421a6.761,6.761,0,0,1,.822.051,6.492,6.492,0,0,1,4.109,10.68l.281.27h.789l4.24,4.26a1.052,1.052,0,0,1-.744,1.8ZM551.5,423a4.5,4.5,0,1,0,4.5,4.5A4.505,4.505,0,0,0,551.5,423Z" transform="translate(-544.999 -420.999)" fill="#09213b"/>
</svg>
