<svg id="Layer_1" data-name="Layer 1" xmlns="http://www.w3.org/2000/svg" viewBox="0 0 1920 1080"><defs><style>.cls-1{fill:#3cc6b9;}</style></defs><path class="cls-1" d="M-917,618.33c.6-3.29,1.21-6.56,1.8-9.85,4.15-23.07,15.55-41.8,31.74-58.12,17.82-18,37.78-31.71,62.79-35.87,33.4-5.56,61.92,5.19,87.32,27.58,22.7,20,40.94,43.32,53.92,70.92,9.27,19.71,17.82,39.77,27.27,59.39,8.83,18.33,19.58,35.32,35.92,47.87,34.79,26.73,82.51,13.72,100.8-26.8a123.81,123.81,0,0,0,10.93-52.61c-.16-31.87,6.2-62.62,15-93,3.45-11.95,5.51-24.34,8-36.57.69-3.42.56-7,.84-10.85-3.78-.59-7-1.09-10.15-1.57-25.75-3.86-49.11-14-67.8-32.39-24.29-23.84-44.4-51.21-61.66-81.12-14.51-25.15-31.81-48.64-48.33-72.54-16.87-24.41-40.15-40.59-66.59-52.35a66.22,66.22,0,0,0-41.66-4.36c-35.93,7.76-57.51,48-44.16,83.06a105.25,105.25,0,0,0,14.84,26.6c12.51,16.21,32.34,17.68,48.09,4.62,4.58-3.79,8.6-8.31,13.29-11.93,1.9-1.47,4.91-1.4,7.42-2-.09,2.47.56,5.31-.4,7.35-5.49,11.65-13.35,21.49-24.06,28.37-13.73,8.81-36.05,7.93-50.59-6.6-10.25-10.25-19.92-20.66-26.8-33.57-17.63-33.13-13.64-69.32,10.82-100.84,29.84-38.45,66.52-46.32,113.22-32.24,31.79,9.58,57,30.36,79.82,54,20.07,20.8,38.68,43.07,58.29,64.35a230.37,230.37,0,0,0,60.12,47c10.84,5.85,21.77,11.52,33.39,15.88-4.44-5.14-8.81-10.36-13.34-15.42-25.69-28.65-37.6-63.66-42.67-101.22-3.79-28.13-5.17-56.6-8.07-84.88-2.27-22.09-6.75-43.69-15.65-64.15A90.19,90.19,0,0,0-596.09,95.2c-33.59-22.8-78.75-.11-83.75,42.42-1.32,11.22-.07,22.74-.26,34.12,0,2.35-1.21,4.68-1.86,7-1.76-1.66-4.36-3-5.16-5-12.6-32.63-5.52-69.52,19.22-92.33C-638.15,54-605.59,50.48-573,74.49c27.54,20.29,47,47.62,57.75,80.88,7.69,23.74,15.19,47.55,22.16,71.52,5.86,20.12,10.42,40.69,20.94,59,13.76,24,31.83,42.57,59.62,48.22,17.1,3.47,34.29,2.64,52.32,0-1-2-1.77-3.7-2.62-5.34-15.56-30-32-59.5-46.41-90A798,798,0,0,1-441,161.65c-12.37-35.21-21.25-71.47-21.38-109.34-.14-41.18,10.34-79.39,29.62-115.46,18.39-34.41,43.89-61.78,73.86-85.79,67.73-54.27,171-54.94,242.4-5.77,27.42,18.88,51.35,42.32,69.36,71.17C-20-40.06-3.5,6.9-5.51,59.36c-1.13,29.75-7.23,58.7-16.76,86.61-9.19,26.93-19.49,53.55-31,79.49-12,27-26.13,53-39.4,79.4-4.85,9.66-9.9,19.21-15.18,29.42,33.53,5.23,65.62,4.43,91.58-21C1.28,296,12.06,273.92,19.1,250c9.32-31.65,18.16-63.46,28.26-94.84,9.48-29.45,25.36-54.55,49.76-74,14.47-11.54,29.54-20.5,47.82-22.5,20.66-2.26,38,5.35,52.13,20.66,6.41,7,12.81,14.12,18.05,22,12.79,19.24,11.73,40.56,7.21,62.09a134.79,134.79,0,0,1-3.81,13.47c-.89,2.73-1,7.36-5.3,5.57-1.52-.62-2.11-5-2.17-7.75-.3-13.16.82-26.45-.61-39.46-2.35-21.44-13.49-37-33.68-44.74-20.63-7.93-39.66-4.87-56.13,10.2C99.58,120,88.09,145.09,83.75,173c-4.38,28.26-6.79,56.87-9.27,85.39-4,46.61-14.9,90.4-46.25,126.41A113.83,113.83,0,0,0,16,401.27q14.85-7.35,29.69-14.73c.77-.38,1.46-1,2.23-1.36,33.69-17.36,59.63-44.3,84-72.84,24.91-29.23,50.62-57.23,82.91-78.24,32-20.79,66.57-29,102.12-15.95,34.33,12.63,57,40.1,63.29,77.36,6.09,35.94-8.26,65.41-35.46,88.74-11.95,10.26-24.76,15.49-40.17,12.39-16.86-3.39-25.57-16.6-33.29-30.57-.78-1.41.4-5.63,1.64-6.15,1.86-.79,5-.15,6.83,1.09,6.5,4.43,12.26,10.18,19.08,13.93,12.72,7,25.56,5.43,35.56-5.12,29.06-30.64,33.77-71.64-1.73-102.75-18.29-16-39.85-16-61.23-8.14-26.34,9.74-49.3,25.57-66.62,48.18-14.78,19.28-27.6,40.15-41,60.49-15.27,23.11-29.25,47.2-45.66,69.41-20.78,28.14-46.91,49.75-81.32,58.48-7.78,2-15.7,3.36-24.87,5.29,1.8,10.68,3.12,21.27,5.44,31.63,5,22.21,11.52,44.1,15.4,66.49,3,17.1,3.12,34.74,4,52.17,1.35,27.41,9.82,51.21,31.58,68.6,24.21,19.36,53.87,19.72,78.89,1.48,16.35-11.92,26.95-28.48,35.7-46.33,9.88-20.15,18.74-40.81,28.3-61.12a221.33,221.33,0,0,1,51.49-69.54c16.21-14.85,34.12-25.39,55.38-29.47,31.75-6.09,59.92,3.45,84.33,23.69,14.63,12.13,28,26.06,36.75,43.9C456,616.76,451,661.54,427.31,691.55,412,711,393.35,722.65,368.5,722a75.33,75.33,0,0,1-39-12.23c-22.3-14.17-34.66-48.86-4-74.38,1.42-1.18,4.11-.75,6.21-1.07,0,2.48.67,5.2-.11,7.38-2.31,6.44-6.12,12.44-7.64,19-3.07,13.27,2.39,24.27,14,31,3.36,1.94,6.51,4.51,10.1,5.71,14.28,4.78,27.38,4.32,40.54-5.56,27.64-20.75,39.45-65.51,21.94-92.73-26.07-40.53-83.7-58.35-124.66-11.58-15.86,18.11-25.23,40-33.39,62.51-6,16.53-11.05,33.44-17.58,49.74a207.33,207.33,0,0,1-45.11,69.22c-26,26.37-57.14,40.57-93,41.15-33.65.54-65-9.44-89.08-35.26-21.19-22.72-36.09-49.78-46-79.49-8.87-26.61-16.83-53.55-25.28-80.31a45.46,45.46,0,0,0-3.17-6.52C-63.1,630-58.79,651.39-56.06,673c3.57,28.27,4.49,56.73.09,85-5.89,38-12.45,75.86-18.12,113.87-4.7,31.45,4.55,57.32,30.91,75.75,18.79,13.13,38.8,22.38,62.09,21.57,21.84-.76,40.25-9.73,54.77-26.28,16.81-19.16,18.18-53.38,3.66-74.48C66.87,853.28,52.14,849,35.47,856.21a55.5,55.5,0,0,1-8.58,3.2A4.51,4.51,0,0,1,23,858.08c-.64-.88-.47-3,.15-4.15,6.26-11.31,15.62-18,28.48-18.13,23.9-.16,39.86,13.91,50.23,33.83,19.29,37,16.06,84.38-27.22,114.74-29.19,20.46-62.14,30-96.86,20.5-43.69-11.9-76.65-38.66-95.9-82-16.66-37.52-16.41-76.28-11.09-115.86,6.53-48.58,4.35-96.46-12.45-143-8-22.16-18.06-43.21-34.68-60-35.24-35.63-94.54-30.6-124,10.12C-321,642.59-332,675-338.16,709.49c-6.59,37.08-4.47,74,.68,111s1.94,73.18-14.13,106.87c-16.76,35.14-43.44,59.6-79.94,73.06-21.67,8-43.48,10.09-65.32,4.75-22.77-5.57-44-15.46-60.62-33.5-25.11-27.31-29.86-73.56-10.41-105.39,9.22-15.09,21.92-25.69,39.51-29.32,15.08-3.12,28.49,2.36,36.39,15.7,1,1.64.74,4,1.07,6.06-2.18.1-4.54.8-6.51.17-3.93-1.24-7.56-3.47-11.47-4.82-12.4-4.29-23.23-1.52-32.24,8.24-20.17,21.85-20.31,59.81.09,81.32,21.75,22.93,47.89,31.67,78.15,22A154.61,154.61,0,0,0-429.14,950c29.54-18.2,40.22-46.12,35.12-80.24-4.2-28.07-10.13-55.86-14.92-83.84A403.31,403.31,0,0,1-403.21,622q1.71-7.12,3.38-14.25c0-.17-.19-.4-1-2.05-2.92,8.18-5.7,15.26-8,22.5-8.36,26.34-15.53,53.13-25.2,78.94-5.88,15.69-14.85,30.32-23.62,44.67-20.89,34.18-51,53.17-90.46,57.49-40.25,4.4-74.81-8.91-104.12-35.59-22.42-20.4-40.13-45.25-50.89-74.53-6.37-17.33-12-35-18.91-52.08-6.41-15.83-13.08-31.74-21.54-46.46-11.46-20-28.46-33.93-50.91-39.28-31.87-7.59-73,13-87.11,43.25-6.49,13.92-7.24,28.49-3.08,43.18A92.19,92.19,0,0,0-852.25,696c8.22,6.49,32.09,5.74,40.83-.93a15.28,15.28,0,0,1,2.55-1.91c20.46-9.32,19.11-29.22,13.13-43.83-1.26-3.07-3.38-5.8-4.48-8.91-.64-1.82,0-4.1,0-6.17,2,.16,4.33-.32,5.93.58,15.46,8.67,23.18,33.15,16.54,49.94-6,15.17-17.3,24.2-31.26,30.59-27.54,12.6-60.5,6.44-80.51-16.5-13.5-15.49-22.86-33.69-26.19-54.64a32.79,32.79,0,0,0-1.3-4.35Z"/></svg>