<svg xmlns="http://www.w3.org/2000/svg" xmlns:xlink="http://www.w3.org/1999/xlink" role="img" viewBox="0 0 720 720" xml:space="preserve"><!-- Generator: WPGraphicator version: 1.5.1 --><style type="text/css">.wpgraphicator-path-l9fa8us5fbp0pfqtvxb5 path {animation-name: wpgraphicator-path-l9fa8us5fbp0pfqtvxb5;animation-delay: 0s;animation-duration: 0s;animation-iteration-count: 1;animation-fill-mode: both;}@keyframes wpgraphicator-path-l9fa8us5fbp0pfqtvxb5{}</style><g class="wpgraphicator-path-l9fa8us5fbp0pfqtvxb5-top" style="transform:translateY(305.42px)"><g class="wpgraphicator-path-l9fa8us5fbp0pfqtvxb5-left" style="transform:translateX(-611.73px)"><g class="wpgraphicator-path-l9fa8us5fbp0pfqtvxb5-angle" style="transform:rotate(0deg)"><g class="wpgraphicator-path-l9fa8us5fbp0pfqtvxb5-scaleY" style="transform:scaleY(1.29)"><g class="wpgraphicator-path-l9fa8us5fbp0pfqtvxb5-scaleX" style="transform:scaleX(1.29)"><g class="wpgraphicator-path-l9fa8us5fbp0pfqtvxb5-skewY" style="transform:skewY(0deg)"><g class="wpgraphicator-path-l9fa8us5fbp0pfqtvxb5-skewX" style="transform:skewX(0deg)"><g class="wpgraphicator-path-l9fa8us5fbp0pfqtvxb5"><linearGradient id="wpgraphicator-gradient-cesp0419k1011b1boetpb2" gradientUnits="objectBoundingBox" x1="0" y1="0.5000000000000001" x2="1" y2="0.4999999999999999"><stop offset="0%" stop-color="rgb(17,198,180)" stop-opacity="1"></stop><stop offset="100%" stop-color="rgb(60,198,185)" stop-opacity="1"></stop></linearGradient><path d="M 380.53 17.45 L 338.79 19.47 C 339.79 19.47 330.38 24.67 326.69 27.41 C 322.68 30.37 318.6 34.85 314.31 38.47 C 310.44 41.75 305.44 46.09 302.04 49.86 C 295.27 57.39 287.41 68.61 282.99 77.72 C 277.65 88.71 273.05 104.57 270.8 116.58 C 269.1 125.65 268.13 138.06 268.75 147.26 C 269.47 157.75 272.91 171.49 275.82 181.59 C 280.15 196.63 287.68 216.18 294.1 230.45 C 300.8 245.34 319.62 278.21 319.62 278.21 C 317.84 278.44 328.93 291.73 329.36 295.82 C 329.59 298.06 318.24 297.38 318.24 297.38 C 318.24 297.38 302.99 297.82 296.58 296.76 C 293.61 296.27 289.79 294.92 287 293.79 C 284.11 292.62 280.3 290.87 277.74 289.09 C 273.25 285.97 267.86 280.93 264.33 276.74 C 262.08 274.08 259.56 270.12 258.02 266.99 C 255.26 261.39 251.09 247.37 251.09 247.37 L 243.47 221.35 Q 228.88 181.59 228.5 181.59 Q 228.13 181.59 222.6 172.49 L 210.38 157.87 L 197.83 148.67 L 182.76 143 L 174.52 142.3 L 165.26 144.27 L 157.41 147.26 L 152.04 150.62 L 145.96 156.36 L 141.76 160.2 L 137.98 166.89 L 136.02 171.01 L 133.89 178.45 L 133.53 183.9 L 133.89 192.23 L 135.85 200.47 L 137.35 205.49 L 137.35 192.98 L 138.23 183.9 L 141.81 172.49 L 145.77 166.89 L 150.02 163.07 L 153.92 159.65 L 159.27 157.16 L 164.16 155.37 L 170.68 154.34 L 178.07 154.69 Q 184.86 157.16 184.95 157.16 Q 185.03 157.16 190.47 159.65 L 193.87 163.07 L 205.05 174.08 L 208.21 178.97 L 215.97 200.47 C 215.97 200.47 218.21 215.07 219.09 221.35 C 219.76 226.13 220.69 232.51 221.17 237.32 C 221.93 244.83 221.79 254.96 222.97 262.41 C 224.14 269.84 226.49 279.65 228.97 286.75 C 230.7 291.69 233.74 298.01 236.26 302.6 C 238.55 306.79 244.88 315.98 244.88 315.98 C 244.88 315.98 251.47 323.48 254.07 326.89 C 255.79 329.16 260.16 331.96 259.45 334.72 C 259.33 335.19 258.77 335.38 258.02 335.45 C 256.21 335.61 249.34 333.05 249.34 333.05 C 249.34 333.05 236.14 325.3 230.55 321.87 C 224.45 318.11 216.05 313.44 210.38 309.05 C 206.1 305.75 200.99 300.61 197.2 296.76 C 190.98 290.43 183.5 281.22 177.37 274.79 C 173.65 270.88 168.53 265.84 164.63 262.11 C 160.33 257.98 154.81 252.19 150.02 248.63 C 144.68 244.65 136.88 240.27 130.91 237.32 C 125.13 234.47 117.32 230.53 111 229.31 C 104.69 228.09 95.97 228.72 89.57 229.31 C 85.8 229.66 80.78 230.47 77.17 231.62 C 74.76 232.39 71.66 233.81 69.51 235.14 C 66.59 236.95 63.18 240.05 60.59 242.29 C 58.48 244.12 55.53 246.46 53.78 248.63 C 52.39 250.36 50.93 252.98 49.99 255 C 49.04 257.04 47.55 262.11 47.55 262.11 C 47.55 262.11 44.16 269.35 43.31 272.66 C 42.46 275.92 41.95 283.82 41.95 283.82 C 41.95 283.82 42.41 290.91 43.31 293.79 C 44.15 296.51 46.21 299.77 47.55 302.28 C 49.33 305.58 51.58 310.07 53.78 313.1 C 55.57 315.57 58.24 318.71 60.59 320.65 C 63 322.64 69.51 326.04 69.51 326.04 C 69.51 326.04 73.72 328.45 75.73 328.89 C 77.75 329.33 80.57 329.18 82.62 328.89 C 84.77 328.59 87.56 327.71 89.57 326.89 C 92.48 325.69 96.33 323.85 98.78 321.87 C 99.84 321 100.99 319.52 101.75 318.37 C 102.67 316.97 103.69 314.95 104.23 313.36 C 104.75 311.83 106.66 308.92 105.28 308.06 C 103.58 306.99 101.47 310.81 99.93 312.09 C 98.59 313.19 96.99 314.87 95.65 315.98 C 94.48 316.95 92.84 319.17 89.57 320.57 C 87.62 321.41 84.73 321.67 82.62 321.87 C 80.56 322.06 77.74 322.32 75.73 321.87 C 74.2 321.52 72.35 320.43 71 319.63 C 68.5 318.14 65.1 316.08 63.16 313.9 C 61.21 311.71 58.42 304.69 58.42 304.69 C 58.42 304.69 54.5 299.03 53.78 296.22 C 53.02 293.25 53.78 285.72 53.78 285.72 C 53.78 285.72 53.49 280.97 53.78 278.96 C 54.18 276.16 55.17 272.45 56.43 269.92 C 57.69 267.4 60.07 264.52 61.88 262.41 C 63.98 259.96 66.99 256.85 69.51 254.84 C 71.64 253.14 74.67 251.04 77.17 249.97 C 78.72 249.31 80.95 248.85 82.62 248.63 C 84.68 248.35 89.57 248.63 89.57 248.63 C 89.57 248.63 93.85 248.38 95.65 248.63 C 96.97 248.81 98.66 249.4 99.93 249.81 C 101.56 250.33 103.65 251.26 105.28 251.77 C 107.08 252.33 109.6 252.7 111.36 253.37 C 113.46 254.18 116.1 255.65 118.03 256.81 C 119.99 257.98 122.38 259.91 124.31 261.15 C 126.24 262.39 129.03 263.72 130.91 265.05 C 132.54 266.22 134.55 268 136.02 269.37 C 139.77 272.85 147.94 281.56 147.94 281.56 L 158.52 296.18 L 166.71 306.83 L 175.89 321.87 L 186.7 337.9 L 197.83 353.39 L 208.21 365 L 223.79 376.1 Q 238.12 382.44 238.98 382.44 Q 239.84 382.44 255.93 386.77 L 258.97 391.9 L 258.02 398.07 L 253.77 411.97 L 247.98 431.32 L 245.68 455.47 L 244.01 476.04 L 241.53 489.33 L 235.81 501.2 L 230.27 509.96 L 221.17 514.68 Q 211.4 519.73 210.38 519.73 C 209.36 519.73 197.78 522.77 197.2 522.77 Q 196.63 522.77 186.7 520.21 Q 179.13 515.98 178.99 515.98 Q 178.85 515.98 167.08 506.49 L 161.3 496.62 L 153.92 483.55 Q 146.16 468.57 145.96 468.28 Q 145.75 468 138.23 451.66 L 126.48 434.41 L 118.1 423.63 L 111.36 415.67 L 99.93 407.28 L 89.57 401.11 L 75.73 397.44 L 69.51 396.98 L 57.49 397.44 L 49.91 399.16 L 41.95 401.68 L 30.54 408.64 L 25.2 414.75 L 17.35 421.69 L 13.49 426.71 L 9.93 432.55 L 4.98 442.7 L 2.95 455.47 L 2.95 465.97 L 3.99 470.89 L 7.16 480.96 L 13.49 492.5 L 17.35 498.52 L 25.2 504 L 34.38 508.43 L 41.95 509.99 L 49.99 510.48 L 56.15 510.46 L 60.59 508.91 L 69.51 504.25 L 73.02 501.33 L 77.17 496.62 L 80.47 492.5 L 81.75 488.48 L 82.62 483.97 L 81.86 478.64 Q 79.4 471.59 79.16 471.59 Q 78.92 471.59 75.38 466.22 L 71 464.01 L 71.45 466.83 L 73.02 471.12 L 75.38 476.04 Q 75.73 482.36 75.73 482.95 Q 75.73 483.55 73.62 492.5 L 69.51 495.71 L 62.3 498.96 L 53.78 501.98 L 45.7 501.2 L 35.56 498.52 L 25.2 485.86 L 20.01 473.01 L 16.44 464.12 L 16.74 456.93 Q 18.44 450.29 18.49 450.29 Q 18.53 450.29 20.01 447.06 L 24.05 439.77 Q 30.54 432.75 30.54 432.72 Q 30.54 432.7 37.38 427.71 L 43.6 424.86 Q 50.26 421.69 50.49 421.69 C 50.73 421.69 55.9 419.92 56.43 419.92 C 56.96 419.92 63.92 419.92 64.07 419.92 Q 64.23 419.92 70.22 419.92 Q 77.5 421.69 77.66 421.69 Q 77.81 421.69 82.62 423.63 Q 86.31 425.35 86.87 426.03 Q 87.42 426.71 95 432.72 L 97.59 435.64 L 103.35 441.26 Q 106.79 449.36 107.05 449.82 Q 107.31 450.29 112.14 459.32 L 118.1 470.89 Q 118.96 475.21 118.96 475.63 C 118.96 476.04 126.48 494.73 126.48 496.62 Q 126.48 498.52 137.35 514.45 Q 146.1 529.32 146.23 529.72 Q 146.37 530.12 150.02 533.58 L 155.23 538.24 L 163.05 546.26 L 178.85 553.39 L 192.07 558.36 L 206.81 560.86 L 222.18 560.86 L 230.78 556.44 Q 242.03 551.73 242.92 551.73 Q 243.8 551.73 253.27 546.02 Q 263.86 535.02 264.93 534.3 C 266.01 533.58 272.13 525.06 272.13 524.54 C 272.13 524.01 275.82 514.36 275.82 514 Q 275.82 513.64 283.82 501.98 L 287 489.33 Q 292.73 475.65 292.73 474.5 Q 292.73 473.35 296.58 461.95 L 299.97 450.29 L 304.73 443.42 L 307.07 441.06 L 305.74 446.88 L 302.72 459.81 L 300.28 470.08 L 299.25 475.63 L 298.45 483.97 Q 297.23 493.99 297.23 494.38 Q 297.23 494.78 296.82 505.3 L 296.82 512.47 Q 296.82 521.63 296.82 522.2 Q 296.82 522.77 297.66 529.86 Q 301.09 548.44 301.09 549.01 Q 301.09 549.57 302.72 565.95 L 305.36 573.03 L 307.88 592.29 L 309.3 604.94 L 308.76 620.14 L 302.04 630.01 L 287.98 640.59 L 279.43 646.09 Q 270.07 649.48 270 649.54 Q 269.93 649.61 259.45 652.25 L 251.09 653.2 L 244.88 652.73 L 238.98 650.54 L 232.48 647.33 L 227.22 644.53 L 223.09 640.16 L 214.03 630.01 L 210.56 620.86 L 210.87 612.09 L 212.25 601.83 L 217.53 592.29 L 223.87 585.5 Q 229.96 582.96 230.94 582.96 Q 231.91 582.96 237.17 583.78 L 244.01 586.32 L 248.77 587.7 L 245.68 582.96 L 241.53 580.1 Q 236.26 578.58 236.26 578.38 Q 236.26 578.17 232.31 578.17 L 226.48 579.49 L 219.09 582.48 Q 212.25 586.59 212.25 587.14 Q 212.25 587.7 208.21 592.29 L 203.68 599.22 L 199.99 609.47 Q 199.41 615.39 199.41 615.75 Q 199.41 616.11 201.15 630.01 L 206.04 643.08 L 214.03 652.73 L 222.97 661.18 L 232.72 666.14 L 251.09 670.76 L 255.02 670.76 L 259.45 670.76 Q 264.71 670.76 264.82 670.76 Q 264.93 670.76 270.8 670.76 L 275.45 670.76 L 280.05 668.54 Q 285.91 667.17 286.32 667.1 C 286.73 667.04 291.56 664.98 291.63 664.98 C 291.69 664.98 295.61 663.52 295.87 663.39 Q 296.14 663.25 303.92 658.02 L 309.83 653.77 L 314.31 649.46 Q 319.94 640.59 320.95 640.59 Q 321.96 640.59 324.95 634.83 L 328.04 630.01 L 331.85 623.27 L 333.73 619.33 L 335.91 612.98 Q 337.77 606.41 337.78 606.41 Q 337.8 606.41 339.29 597.58 L 339.89 583.78 Q 339.29 573 339.29 572.31 Q 339.29 571.61 337.78 556.44 L 337.14 541.17 L 335.02 522.01 Q 337.14 513.51 337.14 512.47 Q 337.14 511.42 338.75 499.94 L 348.6 471.12 L 356.16 459.32 L 359.81 453.06 Q 365.87 443.4 367.26 443.4 Q 368.65 443.4 374.83 437.94 L 385.74 433.96 Q 394.14 430.79 394.14 431.32 Q 394.14 431.85 403.22 431.16 L 414.53 432.72 Q 425.9 437.76 425.9 437.94 C 425.9 438.11 434.01 443.38 434.01 443.4 Q 434.01 443.42 440.34 449.51 L 445.12 456 L 453.16 470.89 L 458.7 483.55 Q 461.31 498.21 461.31 498.52 Q 461.31 498.82 464.99 511.42 L 465 525.27 L 465.86 539.02 L 466.03 547.99 L 463.36 564.47 L 462.4 578.38 L 461.8 588 L 463.36 604.04 L 472.92 630.01 L 481.46 640.59 L 492.25 653.77 L 503.09 661.18 L 513.51 666.14 L 524.35 668.54 L 531.99 670.76 L 541 670.76 L 547.43 670.76 L 556.56 668.54 L 566.14 666.14 L 572.16 663.39 L 577.13 661.18 Q 582.75 658.02 583.18 658.02 C 583.6 658.02 589.24 651.62 590.43 650.54 Q 591.62 649.46 595.62 641.97 L 599.62 634.83 L 601.39 628.7 L 601.37 621.22 L 601.37 613.41 L 600.57 607.24 L 598.95 601.83 L 593.27 591.38 L 585.53 582.96 L 580.75 580.89 L 575.83 578.78 L 572.24 578.38 L 567.65 577.9 L 563.37 578.78 L 558.91 580.1 L 555.07 583.78 L 553.61 585.85 L 553.37 587.7 L 556.56 587.14 L 558.91 586.32 L 561.95 585.5 L 566.14 584.88 L 568.4 584.61 Q 570.9 584.34 571.17 584.61 C 571.44 584.88 575.1 585.85 575.39 585.85 Q 575.69 585.85 578.41 587.14 L 582.95 591.38 L 585.53 595.44 L 587.66 601.83 L 589.26 606.41 L 589.55 612.09 Q 590.43 618.07 590.43 618.28 C 590.43 618.49 588.82 625.45 588.82 625.75 Q 588.82 626.05 585.53 632.09 L 581.95 638.65 L 575.69 643.21 Q 564.4 648.55 564.4 649.54 Q 564.4 650.54 557.21 652.25 L 547.21 652.73 L 540.66 652.73 L 531.93 650.54 L 520.94 647.33 L 513.51 642.46 Q 506.9 637.4 506.9 637.47 Q 506.9 637.55 502.94 633.72 L 498.93 627.33 Q 495.96 622.27 495.82 622.27 Q 495.67 622.27 492.94 618.28 L 492.25 614.11 L 492.94 609.19 L 493.74 588.86 L 497.01 577.42 L 497.01 570.41 L 498.3 564.59 L 499.55 558.36 L 501.48 549.06 Q 501.76 541.91 501.79 541.91 Q 501.82 541.91 502.94 534.3 L 503.09 522.97 L 503.88 517.86 L 504.53 512.84 L 504.53 508.43 L 504.53 498.96 L 503.09 492.5 L 502.94 480.96 L 501.56 471.59 Q 500 465.12 500 464.98 Q 500 464.84 498.93 458.8 L 497.01 453.06 L 496.24 449.51 L 495.56 442.7 L 497.01 444.29 Q 501.09 449.78 501.11 450.04 C 501.13 450.29 503.09 453.57 503.09 454.52 Q 503.09 455.47 506.16 466.22 L 506.9 467.12 Q 508.16 470.23 508.2 470.23 C 508.24 470.23 509.27 474 509.3 474.04 Q 509.34 474.08 511.3 479.75 L 514.85 492.5 Q 524.35 509.25 524.35 509.96 Q 524.35 510.67 531.99 526.16 L 544.22 541.99 L 554.74 549.67 Q 564.99 555.28 565.31 555.28 Q 565.63 555.28 578.41 558.36 L 593.27 560.86 L 604.18 560.86 L 610.01 558.91 L 615.35 557.62 Q 622.51 555.28 622.69 555.28 C 622.88 555.28 627.01 552.67 627.46 552.67 C 627.92 552.67 632.97 549.67 633.42 549.67 Q 633.87 549.67 639.05 546.26 L 643.97 542.1 L 652.43 533.58 L 660.66 521.73 L 666.42 510.48 Q 672.11 501.46 672.11 501.33 Q 672.11 501.2 676.67 490.47 Q 680.39 481.1 680.39 480.61 C 680.39 480.13 685.39 468.57 685.7 468.28 Q 686.01 468 698.13 445.07 L 702.13 438.11 L 707.21 431.85 L 711.9 427.61 L 719.33 424.86 L 728.47 421.05 L 735.66 419 L 750.05 421.69 Q 753.5 422.74 753.8 422.74 Q 754.09 422.74 760.6 425.11 L 766.74 428.72 L 772.13 433.43 Q 776.47 437.28 776.57 438.11 C 776.66 438.94 780.51 443.8 780.8 443.8 C 781.1 443.8 783.77 451.66 784.25 451.66 Q 784.74 451.66 784.74 458.22 L 784.99 466.83 L 781.56 475.22 L 776.57 485.86 L 772.13 492.5 L 766.74 498.52 L 759.39 500.38 L 750.05 501.33 L 747.34 501.2 L 740.35 500.38 L 733.68 496.62 L 729.73 493.52 L 728.47 490.47 L 726.83 487.81 L 725.99 485 L 725.64 481.61 L 725.85 478.08 L 727.19 474.04 L 728.47 470.89 Q 729.73 467.96 729.73 467.8 Q 729.73 467.65 731.68 464.78 L 726.47 468.06 L 722.17 473.63 Q 719.34 481.21 719.34 481.35 C 719.34 481.48 719.33 486.5 719.33 487.15 C 719.33 487.81 720.59 491.4 720.59 491.95 Q 720.59 492.5 725.64 498.82 L 733.68 504.25 L 740.35 507.8 L 747.34 509.96 L 758.01 509.99 Q 766.74 509.4 766.74 508.91 Q 766.74 508.43 776.57 504 L 784.74 498.52 L 792.05 489.33 L 797.66 478.64 L 798.13 467.8 L 798.14 450.94 L 792.05 434.41 L 780.8 415.67 L 766.74 407.78 L 749.64 399.16 L 729.73 396.33 L 722.17 398.07 Q 713.31 401.11 713.31 401.11 Q 713.31 401.11 700.92 408.44 L 693.72 411.97 L 679.79 426.03 L 672.68 435.64 L 666.42 446.03 L 655.61 467.87 L 649.92 480.13 L 642.67 493.52 L 634.1 503.71 L 621.25 515.58 L 607.26 521.34 L 596.45 522.77 Q 585.27 517.89 584.82 517.89 Q 584.38 517.89 578.41 512.99 L 572.16 507.61 L 564.84 499.12 L 562.5 492.97 L 560.03 487.15 L 558.76 481.48 L 557.13 473.01 L 556.62 468.28 L 557.21 461.95 L 556.62 456.84 L 555.67 447.5 L 553.62 438.11 L 551.11 427.46 L 548.99 414.77 L 546 405.61 L 544.32 392.95 L 543.94 388.9 L 545.03 386.77 Q 546.83 385.91 546.99 385.91 Q 547.15 385.91 550.66 385.11 L 555.07 384.74 L 558.91 383.81 L 567.65 382.25 L 572.24 379.31 L 580.15 374.69 Q 587.97 369.38 587.97 369.32 Q 587.97 369.26 591.62 366.69 L 597.23 361.88 L 603.64 355 L 606.16 350.96 L 610.01 346.47 L 612.81 342.9 L 615.8 337.54 L 618.97 332.49 L 621.25 328.93 L 623.62 326.04 L 626.59 321.87 L 630.43 315.98 L 632.86 312.09 L 635.04 307.95 Q 637.88 304.68 638.02 304.33 C 638.17 303.99 640.46 300.09 640.77 299.99 Q 641.07 299.9 643.78 295.58 L 647.5 290.28 L 652.43 284.2 Q 656.26 278.88 656.38 278.54 Q 656.5 278.21 663.21 270.84 L 669.94 266.05 L 675.59 261.77 L 685.7 256.98 L 693.72 251.77 L 707.21 248.63 L 720.59 248.26 Q 724.81 250.93 725.64 250.93 C 726.47 250.93 731.68 254.24 731.68 254.46 C 731.68 254.67 735.66 257.43 735.66 257.95 C 735.66 258.47 740.35 263.35 740.35 263.94 Q 740.35 264.52 744.42 269.37 Q 746.28 273.51 746.49 273.63 C 746.7 273.74 748.03 278.96 748.49 278.96 C 748.95 278.96 750.31 283.28 749.64 283.28 Q 748.98 283.28 748.95 288.73 L 747.34 296.22 L 746.49 298.25 L 745.04 302.6 Q 741.97 307.41 741.97 307.51 Q 741.97 307.62 739.36 311.52 L 736.08 315.08 L 732.86 318.37 L 729.27 320.57 L 724.84 321.87 L 720.99 321.87 L 716.44 321.14 L 711.9 319.63 L 708.27 316.99 Q 705.29 314.28 704.66 314.09 C 704.03 313.9 700.57 310.96 700.18 310.96 Q 699.78 310.96 697.51 309.4 Q 699.47 314.53 699.23 314.8 Q 699 315.08 701.14 318.63 Q 703.12 320.84 703.35 321.35 Q 703.58 321.87 705.82 323.81 Q 709.36 324.94 709.44 325.35 Q 709.52 325.75 711.9 326.89 L 715.76 327.83 L 720.59 328.37 Q 724.16 328.89 724.24 328.89 C 724.32 328.89 727.67 327.84 728.47 327.36 Q 729.27 326.89 731.68 326.04 Q 736.08 324.69 736.08 324.25 C 736.08 323.81 739.42 321.35 739.89 321.35 Q 740.35 321.35 744.42 318.37 L 746.49 315.08 L 748.98 312.09 L 751.14 309.05 L 754.94 301.93 L 756.59 296.99 L 758.96 284.03 L 758.81 273.63 L 756.27 263.84 L 752.57 257.59 L 748.95 249.97 L 745.04 245.84 L 740.35 240.74 L 735.66 237.32 L 729.27 234.1 L 724.24 231.62 L 716.44 229.31 L 709.44 228.46 L 702.06 228.81 L 693.72 229.31 L 680.39 231.87 L 672.68 235.14 L 661.66 240.6 L 658.79 243.39 L 651.06 249.02 L 640.6 258.47 Q 632.86 266.57 632.86 266.78 C 632.86 266.99 617.09 281.83 617.09 282.45 Q 617.09 283.07 595.36 304.5 L 579.51 316.99 Q 565.78 326.04 565.31 326.04 C 564.84 326.04 550.89 331.38 550.66 331.75 C 550.43 332.13 542.33 334.87 540.74 335.45 Q 539.15 336.03 542.7 331.75 L 548.99 324.3 L 556.56 316.99 L 561.06 310.89 L 564.84 304.69 L 569.98 296.76 L 573.05 286.37 L 575.39 278.54 L 577.13 270.78 L 578.76 255.74 L 580.75 244.75 L 581.03 234.1 Q 582.65 225.37 582.65 225.17 Q 582.65 224.97 584.07 210.26 L 585.94 201.55 L 590.54 186.45 L 593.56 180.66 L 596.45 176.28 L 599.24 172.49 Q 604.18 165.81 604.18 165.89 Q 604.18 165.97 607.95 162.65 L 611.07 159.65 L 614.08 157.87 L 617.52 156.36 L 624.99 154.69 L 627.46 154.34 L 634.1 154.69 L 640.37 155.37 L 643 157.16 L 646.86 158.62 L 649.61 160.76 L 653.88 164.1 L 657.74 169.43 L 660.66 174.43 L 661.66 178.97 L 663.11 185.72 Q 663.21 191.76 663.21 192.31 Q 663.21 192.86 663.21 199.67 L 663.21 204.97 L 663.65 208.01 Q 664.88 204.03 664.88 203.54 Q 664.88 203.05 666.42 198.85 Q 667.6 194.74 667.6 194.65 C 667.6 194.55 668.05 190.49 668.05 190.3 Q 668.05 190.1 668.05 184.37 L 668.05 178.97 L 667.11 175.16 L 663.66 166.89 L 661.3 163.07 L 654.88 155.37 L 651.06 151.94 L 643.78 147.26 L 637.3 144.27 L 633.42 143.04 L 629.24 142.3 L 624.24 142.3 L 617.99 143.04 L 614.08 143.9 L 606.16 147.26 L 599.62 151.94 L 594.28 155.37 L 589.85 160.2 L 584.07 165.89 L 578.76 172.95 L 573.87 180.99 L 569.98 187.24 L 566.89 194.65 L 561.01 212.99 L 557.21 225.17 L 553.88 240.01 L 551.36 245.84 L 547.98 252.72 L 546.1 257.59 L 540.74 270.31 L 537.56 274.79 L 533.14 281.24 L 529.02 285.42 L 524.89 288.39 L 518.24 292.15 L 513.51 294.32 L 503.88 296.99 L 495.09 297.6 L 484.76 298.25 L 477.55 296.99 L 472.58 296.76 L 474.55 292.35 L 478.45 285.72 L 481.46 279.42 L 485.4 272.64 L 488.39 267.1 L 492.25 259.85 L 495.82 252.22 L 497.01 248.63 L 500.66 243.01 L 505.93 231.87 L 514.85 211.88 L 517.15 204.97 L 519.9 198.85 L 520.75 195.88 L 527.86 169.43 L 531.12 150.62 L 533.14 133.52 L 531.99 116.58 L 529.32 106.84 L 523.37 89.3 L 500.66 49.55 L 491.01 38.47 L 462.4 17.45 L 434.01 6.95 L 417.25 2.64 L 401.59 2.64 L 394.14 2.64 L 368.14 7.7 L 343.53 17.45 Z" stroke="#3cc6b9" stroke-opacity="1" stroke-width="0.5" stroke-dasharray="none" stroke-dashoffset="0" stroke-linecap="round" stroke-linejoin="round" stroke-miterlimit="4" fill="url(#wpgraphicator-gradient-cesp0419k1011b1boetpb2)" fill-opacity="1" fill-rule="evenodd" opacity="0.7996" transform=" translate(-400.55, -336.7)"></path></g></g></g></g></g></g></g></g></svg>