<!DOCTYPE svg PUBLIC "-//W3C//DTD SVG 1.1//EN" "http://www.w3.org/Graphics/SVG/1.1/DTD/svg11.dtd">
<!-- Uploaded to: SVG Repo, www.svgrepo.com, Transformed by: SVG Repo Mixer Tools -->
<svg width="256px" height="256px" viewBox="-2.4 -2.4 28.80 28.80" fill="none" xmlns="http://www.w3.org/2000/svg" transform="rotate(45)matrix(1, 0, 0, 1, 0, 0)" stroke="#09213b">
<g id="SVGRepo_bgCarrier" stroke-width="0" transform="translate(0,0), scale(1)">
<path transform="translate(-2.4, -2.4), scale(0.8999999999999999)" d="M16,30.457572137838916C18.72516860076641,30.57826752806283,19.83000142263999,26.796399709047616,21.610020612607556,24.729362466235656C22.87896659819762,23.25580609891403,23.701851473347915,21.58380953364005,24.935850480221582,20.080866177071332C26.72679897580847,17.899588778624754,31.10363378831998,16.671258449745203,30.48756119194612,13.917003167674206C29.84732932715377,11.054739847193021,25.210763795746253,11.72616426237649,22.720477739297827,10.176672889852581C21.181149392558797,9.218880917891221,20.45865267247346,7.23730296230295,18.755122840229006,6.616913301459762C17.00459868011233,5.979409296870807,15.110023500289255,6.386327636710649,13.280696745446004,6.738903607295438C11.280062575952005,7.124496575980182,8.883113920073463,7.142036001042758,7.6429944675218735,8.758613484818035C6.402701268323602,10.375417458804662,7.427657863248874,12.708842300267111,7.15214806828372,14.727870943737702C6.87937275717029,16.72686036783159,5.329053576618581,18.660989400034936,6.033788636946497,20.551416225579064C6.741175133836701,22.44895543574224,9.264209674216135,22.818557389904193,10.700496155336477,24.24618894399657C12.670698378069911,26.204518913741317,13.224816029357605,30.334661609592835,16,30.457572137838916" fill="#3cc6b9" strokewidth="0"/>
</g>
<g id="SVGRepo_tracerCarrier" stroke-linecap="round" stroke-linejoin="round" stroke="#09213b" stroke-width="0.144"/>
<g id="SVGRepo_iconCarrier"> <path d="M9 5H7C5.89543 5 5 5.89543 5 7V19C5 20.1046 5.89543 21 7 21H17C18.1046 21 19 20.1046 19 19V7C19 5.89543 18.1046 5 17 5H15" stroke="#09213b" stroke-width="0.744" stroke-linecap="round" stroke-linejoin="round"/> <path d="M12 12H15" stroke="#09213b" stroke-width="0.744" stroke-linecap="round" stroke-linejoin="round"/> <path d="M12 16H15" stroke="#09213b" stroke-width="0.744" stroke-linecap="round" stroke-linejoin="round"/> <path d="M9 5C9 3.89543 9.89543 3 11 3H13C14.1046 3 15 3.89543 15 5V7H9V5Z" stroke="#09213b" stroke-width="0.744" stroke-linecap="round" stroke-linejoin="round"/> <circle cx="9" cy="12" r="1" fill="#09213b"/> <circle cx="9" cy="16" r="1" fill="#09213b"/> </g>
</svg>