<svg id="ez1KclnapSD1" xmlns="http://www.w3.org/2000/svg" xmlns:xlink="http://www.w3.org/1999/xlink" viewBox="0 0 800 838" shape-rendering="geometricPrecision" text-rendering="geometricPrecision"><path d="M343.533142,17.448593l-3.744934,2.019673c0,0-9.407783,5.20524-13.101898,7.939479-4.002843,2.962748-8.08813,7.440919-12.375,11.064444-3.87362,3.274221-8.874389,7.620396-12.267639,11.390184-6.774025,7.525716-14.631345,18.750209-19.053406,27.858952-5.336632,10.992612-9.944507,26.852839-12.19513,38.863329-1.698641,9.06483-2.669189,21.473118-2.040237,30.674257.717164,10.491623,4.153068,24.229365,7.064194,34.334504c4.33187,15.036842,11.857606,34.583561,18.280487,48.85305c6.704565,14.895296,25.520844,47.765159,25.520844,47.765159-1.775741.231944,9.308119,13.521436,9.73645,17.610169.234379,2.23732-11.115571,1.553817-11.115571,1.553817s-15.24759.44814-21.660827-.615692c-2.968506-.492418-6.792495-1.837195-9.581207-2.967499-2.886325-1.169867-6.698508-2.923305-9.256562-4.699768-4.491998-3.119508-9.885111-8.167434-13.410553-12.348419-2.24718-2.665035-4.776187-6.626403-6.314178-9.754791-2.754076-5.601998-6.927033-19.621071-6.927033-19.621071l-7.622116-26.020958q-14.589722-39.753997-14.966156-39.753997t-5.900039-9.105546l-12.22506-14.61917-12.550468-9.202331-15.071869-5.665758-8.235016-.697235-9.263145,1.966904-7.845833,2.988632-5.372834,3.357826-6.083099,5.74131-4.190536,3.84491-3.783692,6.684418-1.956818,4.118027-2.133865,7.447723-.358841,5.4487.358841,8.331627l1.961212,8.232628l1.497315,5.01989v-12.501519l.877929-9.082626l3.586457-11.413956l3.954818-5.600494l4.256836-3.814873l3.893509-3.422394l5.350693-2.488624l4.887863-1.789573l6.525528-1.0284l7.384537.3428q6.797607,2.475173,6.882431,2.475173t5.523285,2.488624l3.401939,3.422394l11.174095,11.004738l3.158722,4.889343l7.761872,21.499497c0,0,2.241089,14.608535,3.118606,20.881332.669568,4.786304,1.598424,11.165881,2.084015,15.974335.758128,7.507186.621599,17.633815,1.798386,25.086853c1.172818,7.427902,3.517164,17.239319,5.998214,24.338165c1.727215,4.941954,4.769077,11.266253,7.287558,15.855744c2.296935,4.185763,8.627771,13.373718,8.627771,13.373718s6.589104,7.508592,9.181824,10.911712c1.728496,2.268767,6.093367,5.069088,5.388504,7.832811-.119366.468026-.686925.66078-1.43634.727401-1.807857.160714-8.674835-2.395264-8.674835-2.395264s-13.20095-7.750024-18.788681-11.186829c-6.107752-3.75665-14.504708-8.427079-20.176888-12.813812-4.275966-3.306933-9.383859-8.438459-13.174293-12.292328-6.226841-6.331051-13.707563-15.544044-19.831612-21.974579-3.718114-3.904192-8.845538-8.946796-12.738091-12.677093-4.305448-4.125981-9.82429-9.920228-14.608612-13.479843-5.34596-3.977483-13.142264-8.358264-19.117767-11.306656-5.772238-2.848098-13.58466-6.786902-19.903862-8.010864-6.312953-1.222752-15.031217-.591148-21.434267,0-3.767095.347789-8.791684,1.163353-12.39723,2.308776-2.411815.766194-5.510583,2.194901-7.66362,3.524689-2.91772,1.802082-6.326129,4.905511-8.920929,7.147743-2.110543,1.823773-5.052924,4.1655-6.804527,6.336312-1.39626,1.730425-2.856389,4.351269-3.790486,6.369034-.947388,2.046475-2.437847,7.110809-2.437847,7.110809s-3.398578,7.244374-4.249257,10.548187c-.841123,3.2667-1.357959,11.161865-1.357959,11.161865s.466496,7.088859,1.357959,9.974121c.840848,2.721443,2.900768,5.981707,4.249257,8.490662c1.773085,3.298946,4.02829,7.788565,6.228333,10.819519c1.791341,2.467894,4.453225,5.609649,6.804527,7.551499c2.410569,1.990796,8.920929,5.386856,8.920929,5.386856s4.213694,2.413085,6.218806,2.850769c2.019269.440775,4.842878.289024,6.889386,0c2.149365-.30355,4.94489-1.17869,6.952658-2.003785c2.910715-1.196163,6.76525-3.037536,9.206742-5.021881c1.067651-.867743,2.215498-2.343428,2.972604-3.492187.923237-1.400831,1.943517-3.422152,2.483925-5.010437.52222-1.534829,2.423491-4.438478,1.050728-5.300995-1.702536-1.069716-3.808842,2.744779-5.357752,4.026886-1.334592,1.104705-2.937854,2.780546-4.271078,3.886902-1.173788.974051-2.812843,3.191941-6.085169,4.597229-1.949383.837155-4.840074,1.09789-6.952658,1.292602-2.058093.18969-4.872864.453175-6.889386,0-1.529228-.343665-3.375078-1.434175-4.722209-2.235351-2.50355-1.488931-5.900699-3.554407-7.840092-5.727753-1.955645-2.191559-4.749008-9.216797-4.749008-9.216797s-3.91563-5.658395-4.632953-8.462372c-.761156-2.975318,0-10.502563,0-10.502563s-.288202-4.755014,0-6.763489c.401306-2.79669,1.386776-6.509696,2.648246-9.037781c1.25494-2.514997,3.63576-5.397508,5.446694-7.511352c2.097939-2.448856,5.110645-5.558332,7.630516-7.570419c2.12881-1.699829,5.158351-3.801074,7.66362-4.871064c1.546847-.660652,3.777077-1.11813,5.444572-1.338714c2.068281-.273602,6.952658,0,6.952658,0s4.276199-.245488,6.085169,0c1.317328.178769,3.005122.77518,4.271078,1.180969c1.629772.522407,3.724989,1.44652,5.357752,1.959503c1.797434.56472,4.313198.928155,6.071998,1.603653c2.101208.807006,4.74097,2.275391,6.671593,3.432556c1.964527,1.177486,4.351983,3.10522,6.280624,4.340607c1.93769,1.241183,4.723669,2.576263,6.599915,3.908508c1.63682,1.162238,3.646088,2.945891,5.117065,4.311981c3.747323,3.480124,11.917359,12.189057,11.917359,12.189057l10.574768,14.629638l8.198257,10.649231l9.178467,15.031952l10.806351,16.034562l11.12764,15.494277l10.380462,11.601075l15.580902,11.10202q14.329132,6.343262,15.191605,6.343262t16.950714,4.325089l3.038513,5.137954-.951324,6.161865-4.248642,13.903442-5.790238,19.350129-2.299407,24.148529-1.666199,20.569397-2.485749,13.294983-5.716217,11.86267-5.54248,8.760376-9.096985,4.725159q-9.773865,5.046997-10.794487,5.046997c-1.020622,0-12.601783,3.04364-13.174293,3.04364q-.57251,0-10.503815-2.557617-7.567169-4.229736-7.708206-4.229736t-11.913269-9.4953l-5.780777-9.866394-7.378739-13.072205q-7.753555-14.984925-7.963165-15.27002t-7.728455-16.620941l-11.750167-17.24704-8.373307-10.786834-6.748314-7.950897-11.42975-8.396241-10.356247-6.167053-13.842044-3.675751-6.218806-.459137-12.020218.459504-7.582504,1.727905-7.958283,2.514175-11.405409,6.965592-5.341749,6.107971-7.850887,6.939637-3.857646,5.015645-3.560412,5.847574L4.98052,442.699615L2.946185,455.468262v10.500946l1.047747,4.91806l3.164901,10.077545l6.332688,11.531708l3.857646,6.020584l7.850887,5.486038l9.180447,4.426819l7.566711,1.562103l8.045063.49173l6.152996-.020874l4.442017-1.550201l8.920929-4.667145l3.511391-2.919678l4.152229-4.70346l3.294434-4.125916l1.284013-4.013544.866125-4.51145-.754472-5.331238q-2.466174-7.048461-2.704278-7.048461t-3.779996-5.368867l-4.372849-2.213195.445183,2.82016l1.569611,4.286987l2.358055,4.920746q.34936,6.321593.34936,6.917083t-2.107859,9.541779l-4.110947,3.218231-7.204041,3.241455-8.521415,3.024598-8.081978-.785493-10.143329-2.678207-10.3574-12.661698-5.194946-12.845184-3.561554-8.891265.294748-7.185303q1.705379-6.645935,1.747155-6.645935t1.519651-3.231995l4.042786-7.28717q6.493909-7.016267,6.493909-7.044251t6.838667-5.015411l6.214569-2.847962q6.660962-3.169829,6.899217-3.169829c.238255,0,5.408255-1.768128,5.936751-1.768128s7.484976,0,7.643813,0q.158837,0,6.147779,0q7.273948,1.768128,7.432785,1.768128t4.961025,1.934295q3.695593,1.729046,4.251522,2.405198t8.136174,6.693709l2.585324,2.91593l5.763072,5.62414q3.441256,8.094878,3.700082,8.559112t5.090248,9.495692l5.960547,11.56809q.85521,4.325529.85521,4.73796c0,.412431,7.518097,19.102541,7.518097,20.997209q0,1.894668,10.872238,17.827636q8.74977,14.870116,8.885879,15.27124t3.790161,3.858521l5.207637,4.661042l7.819951,8.020477l15.797669,7.133483l13.219421,4.965393l14.740784,2.494996h15.369751l8.596832-4.410584q11.257873-4.709808,12.138214-4.709808t10.3582-5.714447q10.582963-10.995484,11.658097-11.718018c1.075134-.722534,7.197143-9.239135,7.197143-9.766235s3.69043-10.1781,3.69043-10.538574q0-.360474,8.005417-12.016754l3.174759-12.648163q5.733429-13.68573,5.733429-14.83606t3.847778-12.545258l3.394073-11.663604l4.757477-6.869355l2.33429-2.360641-1.328308,5.826126-3.016632,12.93042-2.445496,10.266235-1.021515,5.544723-.804672,8.346299q-1.218002,10.019287-1.218002,10.41214t-.407563,10.91272v7.172607q0,9.162598,0,9.732544t.838104,7.659424q3.427796,18.583983,3.427796,19.14685t1.631348,16.942872l2.642471,7.082641l2.514816,19.257263l1.425507,12.651521-.547303,15.194793-6.713195,9.87207-14.064362,10.584595-8.545837,5.49909q-9.368319,3.383038-9.43598,3.450699t-10.543177,2.70643l-8.363373.947251-6.206955-.465531-5.903915-2.193882-6.504211-3.21059-5.253052-2.798976-4.13472-4.363109-9.054794-10.155977-3.477829-9.152283.319488-8.76831l1.37175-10.262024l5.279412-9.535767l6.339713-6.787841q6.099015-2.541016,7.070054-2.541016t6.233764.814148l6.843842,2.547424l4.755661,1.372254-3.089462-4.733826-4.151948-2.865287q-5.271524-1.513742-5.271524-1.721078t-3.945105-.207336l-5.832114,1.322907-7.390954,2.989898q-6.841339,4.113524-6.841339,4.664123t-4.039139,5.14563l-4.529876,6.930725-3.689606,10.244874q-.578652,5.924193-.578652,6.284423t1.73864,14.258362l4.889054,13.07312l7.99617,9.649414l8.937149,8.452149l9.754364,4.959752l18.366134,4.615199h3.926453h4.43692q5.260284,0,5.368744,0t5.972076,0h4.656769l4.596711-2.220343q5.864026-1.370276,6.272482-1.436598c.408456-.066322,5.239459-2.122313,5.305782-2.122313s3.979336-1.459091,4.244626-1.591735q.26529-.132644,8.047044-5.372104l5.911529-4.244626l4.481232-4.310949q5.624267-8.866371,6.634399-8.866371t4.000916-5.767803l3.090922-4.816792l3.813893-6.738098l1.880175-3.938271l2.182081-6.357261q1.851746-6.568299,1.867859-6.568299t1.512497-8.825866l.597366-13.805298q-.597366-10.77124-.597366-11.468994t-1.512497-15.862244l-.638183-15.277649-2.119721-19.159057q2.119721-8.494843,2.119721-9.538941t1.607696-12.533935l9.845703-28.818146l7.566551-11.797735l3.643215-6.261042q6.062223-9.658416,7.45271-9.658416t7.571804-5.463441l10.904026-3.976959q8.408356-3.16571,8.408356-2.639587t9.075638-.161042l11.31224,1.565613q11.370575,5.038848,11.370575,5.211975c0,.173127,8.1091,5.444795,8.1091,5.463441q0,.018645,6.329743,6.110229l4.776092,6.487182l8.047577,14.890137l5.531922,12.662964q2.609375,14.663666,2.609375,14.966873t3.682708,12.907791l.015686,13.842316.856476,13.753784.17392,8.968506-2.672455,16.477966-.961334,13.907898-.599915,9.619812l1.561249,16.041626l9.556488,25.972168l8.546356,10.584595l10.780182,13.17732l10.843872,7.412768l10.416443,4.959752l10.849609,2.394856l7.639832,2.220343h9.00885h6.428955l9.125733-2.220343l9.581787-2.394856l6.015564-2.75579l4.969543-2.203962q5.627991-3.168142,6.052063-3.168142c.424072,0,6.064515-6.400203,7.252991-7.477889q1.188476-1.077686,5.185608-8.566768l4.007812-7.145092l1.761963-6.129719-.013244-7.471191v-7.81897l-.802735-6.167603-1.617859-5.411926-5.680603-10.450622-7.745727-8.414002-4.776001-2.069402-4.915406-2.114131-3.597534-.402832-4.590057-.472046-4.280182.874878-4.456055,1.318246-3.842773,3.679435-1.458862,2.077148-.241272,1.84253l3.190979-.550599l2.351928-.821655l3.041199-.820556l4.18866-.618433l2.263977-.270643q2.49622-.270643,2.766863,0c.270643.270643,3.929059,1.239356,4.221967,1.239356q.292908,0,3.018067,1.291931l4.542907,4.230775l2.571595,4.06018l2.131591,6.390442l1.600831,4.580688.296264,5.681336q.876099,5.97815.876099,6.189087c0,.210937-1.608276,7.168091-1.608276,7.471924q0,.303833-3.296509,6.34497l-3.573853,6.55597-6.265808,4.559265q-11.289917,5.339493-11.289917,6.333761t-7.183105,2.70643l-10.001709.48172h-6.555909l-8.721496-2.193882-10.992188-3.21059-7.436157-4.868843q-6.608053-5.059561-6.608053-4.984423t-3.958109-3.756939l-4.009399-6.386795q-2.972336-5.060625-3.113709-5.060625t-2.88092-3.991943l-.690125-4.171854.690125-4.9186.80719-20.323731l3.267059-11.445434v-7.009156l1.286124-5.819336l1.259011-6.229126l1.925782-9.299926q.28131-7.150452.308929-7.150452t1.149933-7.607483l.149719-11.33258.786299-5.111573.651232-5.01709v-4.411163-9.473755l-1.437531-6.459686-.149719-11.531708-1.38147-9.372985q-1.562706-6.474519-1.562706-6.615052t-1.065223-6.178894l-1.92038-5.739746-.76767-3.548187-.68277-6.810334l1.45044,1.58722q4.079743,5.49591,4.09964,5.748398c.019897.252487,1.979858,3.531478,1.979858,4.482254q0,.950775,3.075775,11.705474l.732615.893158q1.267178,3.116211,1.302689,3.116211c.035511,0,1.06533,3.772024,1.10084,3.807535q.03551.035511,2.001582,5.714041l3.549439,12.742615q9.503112,16.748595,9.503112,17.459167t7.639832,16.206543l12.22345,15.829163l10.524658,7.68158q10.24646,5.609558,10.567932,5.609558t13.100159,3.077697l14.860229,2.494996h10.911499l5.827576-1.948865l5.343018-1.283583q7.156172-2.340245,7.339541-2.340245c.183369,0,4.315969-2.610719,4.770993-2.610719s5.501973-2.998839,5.956095-2.998839q.454122,0,5.634542-3.411621l4.916382-4.164124l8.461487-8.517395l8.229553-11.854797l5.753968-11.241242q5.695129-9.027313,5.695129-9.157898t4.55835-10.851089q3.719787-9.377151,3.719787-9.861618c0-.484467,5.000215-12.047883,5.312704-12.332978q.312489-.285095,12.423319-23.208068l4.006775-6.962738l5.077515-6.26355l4.692016-4.236481l7.431397-2.748444l9.135956-3.809021L735.655518,419l14.394631,2.691102q3.450015,1.049315,3.74573,1.049315t6.801457,2.37381l6.138077,3.608063l5.394828,4.708496q4.337161,3.849046,4.435733,4.67862c.098572.829574,3.942874,5.693298,4.238589,5.693298s2.967653,7.856567,3.450014,7.856567q.482361,0,.482361,6.562836l.254029,8.607819-3.431915,8.39273-4.993078,10.632751-4.435733,6.641114-5.394828,6.020584-7.344605,1.860092-9.340659.9487-2.708962-.130585-6.991639-.818115-6.674011-3.75476-3.947082-3.103821-1.259613-3.043808-1.635413-2.665085-.840509-2.813229-.350211-3.385441.210127-3.533203l1.336533-4.037985l1.279473-3.152597q1.259613-2.927001,1.259613-3.082397t1.946655-3.028992l-5.20338,3.287964-4.305831,5.569q-2.826666,7.581969-2.826666,7.714172c0,.132203-.006347,5.149445-.006347,5.806077s1.254209,4.242591,1.254209,4.79301q0,.550419,5.055614,6.87421l8.032828,5.425263l6.674011,3.553802l6.991639,2.156311l10.664428.036377q8.729798-.596587,8.729798-1.079345t9.830561-4.909577l8.170964-5.486038l7.30896-9.184463l5.615723-10.692353.470581-10.835418.012756-16.860199-6.09906-16.532441L780.804563,415.6745l-14.06915-7.896058-17.093872-8.614715-19.913086-2.83548-7.562556,1.737915q-8.854925,3.044984-8.854925,3.045014t-12.392151,7.332184l-7.198791,3.526244-13.934967,14.060991-7.10965,9.609639-6.259521,10.389124-10.801422,21.843597-5.690827,12.255768-7.249268,13.389893-8.575866,10.189331-12.84668,11.870422-13.98938,5.759033-10.813476,1.434082q-11.183167-4.878418-11.624695-4.878418t-6.413269-4.900024l-6.25531-5.38147-7.314881-8.496124-2.338318-6.14245-2.471618-5.819906-1.269898-5.673874-1.627502-8.468995-.516052-4.730011.595398-6.328888-.595398-5.115372-.950989-9.339339-2.051392-9.387207-2.509521-10.652833-2.113648-12.691253-2.989501-9.158051-1.686768-12.654571-.376221-4.055754l1.095337-2.130601q1.792907-.851548,1.952087-.851548t3.673096-.808414l4.407593-.369811l3.842773-.924528l8.736237-1.559479l4.590057-2.940109l7.910889-4.625686q7.820984-5.301881,7.820984-5.363587t3.650329-2.628296l5.613343-4.818725l6.407226-6.877182l2.520813-4.041947l3.850159-4.484481l2.79718-3.57454l2.997193-5.353241l3.162269-5.054657l2.284874-3.558441l2.364258-2.890716l2.971879-4.174897l3.83798-5.889831l2.438599-3.886902l2.176835-4.144196q2.834167-3.267914,2.981567-3.611694c.1474-.34378,2.439271-4.245178,2.742432-4.340149q.303161-.094971,3.011719-4.409667l3.719041-5.308106l4.936232-6.075135q3.831849-5.324173,3.950806-5.656463t6.829101-7.707794l6.731934-4.787293l5.649658-4.281341l10.107992-4.784409l8.018168-5.214203l13.489441-3.140472l13.377622-.372269q4.226593,2.673996,5.055614,2.673996c.829021,0,6.032401,3.314438,6.032401,3.528702s3.980408,2.975067,3.980408,3.494659s4.69403,5.399109,4.69403,5.9823q0,.583191,4.071955,5.430389q1.854402,4.141816,2.068371,4.25998c.213969.118164,1.537801,5.331573,1.997047,5.331573s1.819049,4.326142,1.15462,4.326142q-.664429,0-.695374,5.450531l-1.60498,7.489379-.851313,2.028769-1.452949,4.349955q-3.062636,4.802978-3.062636,4.910019t-2.612248,4.006088l-3.283874,3.560425-3.220932,3.29483-3.588253,2.199585-4.424797,1.292602h-3.849407l-4.55644-.723918-4.536849-1.511433-3.63332-2.639405q-2.979682-2.712372-3.610942-2.90036c-.631261-.187988-4.087872-3.13504-4.480668-3.13504q-.392796,0-2.671016-1.556839q1.963983,5.126876,1.728305,5.403427t1.91111,3.824982q1.974024,2.209668,2.205259,2.724127t2.466502,2.460993q3.545597,1.131577,3.622675,1.534912t2.462095,1.540435l3.858317.938229l4.827289.539547q3.574234.526009,3.651312.526009c.077078,0,3.430295-1.052267,4.230435-1.528026q.80014-.475759,3.206268-1.322743q4.403057-1.353547,4.403057-1.790955c0-.437408,3.342845-2.898401,3.807113-2.898401q.464268,0,4.536223-2.977728l2.068371-3.29483l2.487238-2.989716l2.161584-3.037079l3.803221-7.119751l1.646153-4.941955l2.367618-12.959198-.143188-10.405182-2.547348-9.782715-3.697792-6.253746-3.621193-7.622582-3.909242-4.125564-4.687377-5.10109-4.69403-3.418716-6.386536-3.222595-5.030575-2.479493-7.800069-2.308776-6.998944-.855835-7.381166.359054-8.338196.496781-13.330872,2.560211-7.713745,3.273254-11.012695,5.453324-2.867981,2.788604-7.737244,5.630142-10.461059,9.456665q-7.731889,8.095154-7.731889,8.305756c0,.210602-15.776534,15.054261-15.776534,15.672638q0,.618378-21.730896,22.050553l-15.849854,12.489272q-13.726379,9.049653-14.196411,9.049653c-.470032,0-14.42041,5.337799-14.65094,5.713226s-8.326294,3.115815-9.92041,3.69397q-1.594116.578155,1.964844-3.69397l6.287536-7.454651l7.566468-7.308228l4.497314-6.100891l3.785156-6.204254l5.141358-7.926239l3.069885-10.394623l2.340881-7.82138l1.7323-7.762604l1.639404-15.03656l1.984864-10.992188.281128-10.653411q1.615966-8.730812,1.615966-8.929266t1.426697-14.9107l1.862793-8.705377l4.607239-15.107886l3.019653-5.784516l2.885987-4.37854l2.793457-3.794998q4.940307-6.678613,4.940307-6.599644t3.766602-3.237729l3.117004-3.000388l3.013916-1.781409l3.4375-1.510652l7.469271-1.671736l2.476835-.3428l6.634644.3428l6.275513.6856l2.622619,1.789573l3.864803,1.461593l2.751225,2.132163l4.265991,3.344934l3.862305,5.33345l2.920959,5l1.000794,4.532959l1.445068,6.755768q.104492,6.035553.104492,6.588402t0,7.355273v5.30692l.435375,3.037979q1.232777-3.976315,1.232777-4.470892t1.535462-4.687875q1.184831-4.107703,1.184831-4.20653c0-.098827.45381-4.150722.45381-4.348376q0-.197654,0-5.929604v-5.401065l-.947944-3.809433-3.449918-8.269775-2.356502-3.814873-6.419922-7.700591-3.822754-3.432965-7.280395-4.680035-6.481446-2.988632-3.875692-1.22702-4.184671-.739884h-4.992981l-6.249157.739884-3.912892.861343-7.920105,3.354309-6.536438,4.680035-5.348205,3.432965-4.430115,4.831046-5.772095,5.685268-5.308655,7.059224-4.89801,8.047149-3.88446,6.247096-3.09668,7.403934-5.872254,18.347414-3.800414,12.176844-3.329468,14.840459-2.521179,5.831208-3.386963,6.878784-1.878418,4.869362-5.3573,12.723671-3.176025,4.471969-4.426575,6.459336-4.113953,4.175644-4.134949,2.974517-6.643066,3.755738-4.739563,2.168213-9.630144,2.671753-8.783064.614349-10.334732.647665-7.207077-1.262014-4.970093-.230622l1.965454-4.405029l3.908295-6.633667l3.010864-6.298126l3.936524-6.784211l2.986969-5.542449l3.856689-7.246521l3.571045-7.631592l1.193329-3.58992l3.64798-5.61882l5.272827-11.138489l8.921631-19.991913l2.294773-6.906235l2.748867-6.120788.857605-2.97358l7.11029-26.444954l3.257996-18.816887l2.015503-17.100379-1.151367-16.931704-2.667054-9.748938-5.946594-17.535408L500.65741,49.550556l-9.651673-11.078367-28.605041-21.023596-28.38971-10.501469-16.760589-4.30694h-15.663971-7.442993L368.138902,7.702326l-24.60576,9.746267Z" transform="translate(1.855042 82.300605)" opacity="0.7996" fill="none" stroke="#3cc6b9" stroke-width="0.5" stroke-linecap="round" stroke-linejoin="round"/></svg>
