<svg xmlns="http://www.w3.org/2000/svg" xmlns:xlink="http://www.w3.org/1999/xlink" width="128.274" height="128.274" viewBox="0 0 128.274 128.274">
  <defs>
    <clipPath id="clip-path">
      <path id="Path_315" data-name="Path 315" d="M49.637,49.637H177.91V177.91H49.637Zm0,0" transform="translate(-49.637 -49.637)"/>
    </clipPath>
  </defs>
  <g id="Group_812" data-name="Group 812" transform="translate(-10648.137 -6889.137)">
    <g id="Group_811" data-name="Group 811" transform="translate(10648.137 6889.137)" clip-path="url(#clip-path)">
      <path id="Path_314" data-name="Path 314" d="M113.774,61.3a52.476,52.476,0,1,0,52.476,52.476A52.475,52.475,0,0,0,113.774,61.3ZM49.637,113.774a64.137,64.137,0,1,1,64.137,64.137A64.137,64.137,0,0,1,49.637,113.774Zm0,0" transform="translate(-49.637 -49.637)" fill="#38a37f" fill-rule="evenodd"/>
    </g>
    <path id="Path_316" data-name="Path 316" d="M142.477,136.129a17.492,17.492,0,0,1,17.492-17.492h18.075V130.3H159.969a5.831,5.831,0,0,0-5.829,5.831v2.916a5.829,5.829,0,0,0,5.829,5.829h7a17.493,17.493,0,0,1,17.492,17.492v2.915a17.492,17.492,0,0,1-17.492,17.492H148.891V171.113h18.075a5.831,5.831,0,0,0,5.831-5.831v-2.915a5.831,5.831,0,0,0-5.831-5.829h-7a17.493,17.493,0,0,1-17.492-17.492Zm0,0" transform="translate(10548.809 6802.568)" fill="#38a37f" fill-rule="evenodd"/>
    <path id="Path_317" data-name="Path 317" d="M175.09,103.582h11.663V116.41H175.09Zm0,0" transform="translate(10531.353 6810.626)" fill="#38a37f" fill-rule="evenodd"/>
    <path id="Path_318" data-name="Path 318" d="M175.09,244.09h11.663v12.828H175.09Zm0,0" transform="translate(10531.353 6735.421)" fill="#38a37f" fill-rule="evenodd"/>
  </g>
</svg>
