<svg xmlns="http://www.w3.org/2000/svg" width="24" height="24" viewBox="0 0 24 24">
  <g id="notification_important" transform="translate(-202 -728)">
    <rect id="Rectangle_Copy_3" data-name="Rectangle Copy 3" width="24" height="24" transform="translate(202 728)" fill="rgba(0,0,0,0)"/>
    <path id="Icon" d="M214,751a1.992,1.992,0,0,1-1.99-1.99h3.98A1.992,1.992,0,0,1,214,751Zm9-3H205v-1l2-2v-6a6.994,6.994,0,0,1,5.5-6.83V731a1.5,1.5,0,1,1,3,0v1.17A6.995,6.995,0,0,1,221,739v6l2,2v1Zm-9-14a5.006,5.006,0,0,0-5,5v7h10v-7A5.006,5.006,0,0,0,214,734Z" fill="#fff"/>
  </g>
</svg>
