<!DOCTYPE svg PUBLIC "-//W3C//DTD SVG 1.1//EN" "http://www.w3.org/Graphics/SVG/1.1/DTD/svg11.dtd">
<!-- Uploaded to: SVG Repo, www.svgrepo.com, Transformed by: SVG Repo Mixer Tools -->
<svg fill="#09213b" height="800px" width="800px" version="1.1" id="Icons" xmlns="http://www.w3.org/2000/svg" xmlns:xlink="http://www.w3.org/1999/xlink" viewBox="-3.2 -3.2 38.40 38.40" xml:space="preserve" stroke="#09213b" stroke-width="0.00032">
<g id="SVGRepo_bgCarrier" stroke-width="0">
<path transform="translate(-3.2, -3.2), scale(1.2)" d="M16,31.306991336867213C19.477024980028208,32.14905664194193,23.292146891820344,30.21162067586725,25.72063969041273,27.584607273363247C27.995642202321392,25.12363143971926,28.050807683067998,21.494780328045593,28.167009707045104,18.14537208589385C28.26609417390319,15.289360472627344,27.491060899198118,12.647281615472318,26.32944872086934,10.036290000425655C25.001828611035386,7.052157224088088,24.18037045428029,3.0541611448398736,21.045393535789557,2.137895188155877C17.910920447947987,1.221776487060601,15.299551133011548,4.564746811594598,12.341357636297282,5.947962719866693C9.78000553461169,7.145620336811919,6.809203477336242,7.478333454656195,4.991752923294866,9.644385586958373C2.9122075671474175,12.122804404398028,0.8048671241168861,15.42648471107932,1.8072813624749724,18.50255922539954C2.7997966714748554,21.548257231533185,7.184398699425968,21.525726981281643,9.562836096213857,23.6715132084549C12.111393941401003,25.97077924368561,12.663978232265135,30.49907416522792,16,31.306991336867213" fill="#3cc6b9" strokewidth="0"/>
</g>
<g id="SVGRepo_tracerCarrier" stroke-linecap="round" stroke-linejoin="round"/>
<g id="SVGRepo_iconCarrier"> <path d="M23,28c-1.1,0-2.1-0.7-2.5-1.8c0-0.1,0-0.2-0.1-0.2h-8.9c0,0.1,0,0.2-0.1,0.2C11.1,27.3,10.1,28,9,28c-0.6,0-1,0.4-1,1 s0.4,1,1,1h14c0.6,0,1-0.4,1-1S23.6,28,23,28z"/> <path d="M27,3H5C3.3,3,2,4.3,2,6v8h3h2c0.6,0,1-0.4,1-1s-0.4-1-1-1H5H4c-0.6,0-1-0.4-1-1s0.4-1,1-1h1h3c0.6,0,1-0.4,1-1S8.6,8,8,8H5 V7c0-0.6,0.4-1,1-1h12c0.6,0,1,0.4,1,1v2h4c0.3,0,0.6,0.1,0.8,0.4l3,4c0.1,0.2,0.2,0.4,0.2,0.6v4c0,0.6-0.4,1-1,1h-1.2 c-0.4,1.2-1.5,2-2.8,2s-2.4-0.8-2.8-2H18h-4.2c-0.4,1.2-1.5,2-2.8,2s-2.4-0.8-2.8-2H6c-0.6,0-1-0.4-1-1v-2H2v5c0,1.7,1.3,3,3,3h6.9 h8.1H27c1.7,0,3-1.3,3-3V6C30,4.3,28.7,3,27,3z"/> </g>
</svg>