<!DOCTYPE svg PUBLIC "-//W3C//DTD SVG 1.1//EN" "http://www.w3.org/Graphics/SVG/1.1/DTD/svg11.dtd">
<!-- Uploaded to: SVG Repo, www.svgrepo.com, Transformed by: SVG Repo Mixer Tools -->
<svg width="800px" height="800px" viewBox="-2.4 -2.4 28.80 28.80" fill="none" xmlns="http://www.w3.org/2000/svg" stroke="#09213b">
<g id="SVGRepo_bgCarrier" stroke-width="0">
<path transform="translate(-2.4, -2.4), scale(0.8999999999999999)" d="M16,30.91580180823803C18.984802490972186,31.177108191258846,20.51208163028361,27.304190387391984,23.000790645661752,25.63576167369255C25.640182588958254,23.866315234718755,29.777016686762124,23.80790519413561,30.98595151388022,20.869230813651026C32.192175491005415,17.93714595746898,30.20100860038198,14.656540276961701,28.656609257168956,11.887618364822075C27.343122319314343,9.532694569032058,25.115314725275677,8.041292349464985,22.941293718708614,6.4461288208893475C20.755224728329075,4.842125219327997,18.664016797670616,3.105690717818782,16,2.6009732857346535C12.914135185634521,2.0163336670103402,9.232244513772693,1.3578258405755643,6.8427630762168565,3.396144656633812C4.456365824721233,5.431832544332476,4.81940520283854,9.173418216386754,4.625206921068861,12.304105688081528C4.475021855114887,14.725252261228862,4.902215931860788,17.06561005438282,5.856497148715423,19.295823865177002C6.735379214318472,21.349825228871264,8.367310661070011,22.80021106816808,9.836530242194963,24.483288342013694C11.838384603278556,26.776530022136654,12.967525968306022,30.650321990654383,16,30.91580180823803" fill="#3cc6b9" strokewidth="0"/>
</g>
<g id="SVGRepo_tracerCarrier" stroke-linecap="round" stroke-linejoin="round"/>
<g id="SVGRepo_iconCarrier"> <rect x="5" y="4" width="14" height="17" rx="2" stroke="#09213b" stroke-width="1.176"/> <path d="M9 9H15" stroke="#09213b" stroke-width="1.176" stroke-linecap="round"/> <path d="M9 13H15" stroke="#09213b" stroke-width="1.176" stroke-linecap="round"/> <path d="M9 17H13" stroke="#09213b" stroke-width="1.176" stroke-linecap="round"/> </g>
</svg>