<!DOCTYPE svg PUBLIC "-//W3C//DTD SVG 1.1//EN" "http://www.w3.org/Graphics/SVG/1.1/DTD/svg11.dtd">
<!-- Uploaded to: SVG Repo, www.svgrepo.com, Transformed by: SVG Repo Mixer Tools -->
<svg width="800px" height="800px" viewBox="-56.32 -56.32 624.64 624.64" version="1.1" xmlns="http://www.w3.org/2000/svg" xmlns:xlink="http://www.w3.org/1999/xlink" fill="#000000" stroke="#000000">
<g id="SVGRepo_bgCarrier" stroke-width="0" transform="translate(0,0), scale(1)">
<path transform="translate(-56.32, -56.32), scale(19.52)" d="M16,24.02608712017536C17.27510643303486,23.69053335135239,18.59382806015415,24.247149245732572,19.905090229799036,24.10900341772328C21.613184635076653,23.929049994679723,23.302892219065573,23.746164960758627,24.889953085121938,23.089501013797772C27.146789991320652,22.155709839074962,30.172835244761238,21.69680162232849,31.147522249154843,19.4573231065492C32.05695078585424,17.36778496723444,30.10859234132874,15.094394672338245,29.296349204238552,12.965195060919887C28.568069681287774,11.056096163727771,28.43113896447123,8.457053271314589,26.602998765017848,7.544390642545276C24.52534187870876,6.50716177130964,21.69221343394457,9.482997908702016,19.75530899189445,8.20202052759069C17.350806411642733,6.611795759007832,18.84305947051371,1.0089946016691003,16.000000000000004,0.532066598534584C13.43901463817998,0.10245700107904632,13.806670989707612,5.487606703367049,11.584622496199666,6.83137413941445C9.670645441895282,7.988837645017714,6.331412931187071,5.4291298049721615,4.968936838406048,7.203020677547823C3.5921099645333294,8.995595708860485,5.977164355534845,11.531356250554218,6.2514501252730525,13.77495710632666C6.433167447628378,15.261367211868102,5.78371871065336,16.810421137841715,6.3146430993403015,18.210619509715183C6.831105518497518,19.57267756138282,8.447891428542569,20.183331862753676,9.162646170980139,21.45260772901655C10.0443342860013,23.018327240230445,9.279764166888153,25.82960332571006,10.961487404645974,26.462579211151844C12.729642551999412,27.12808679579263,14.172952338556598,24.50688834016244,16,24.02608712017536" fill="#3cc6b9" strokewidth="0"/>
</g>
<g id="SVGRepo_tracerCarrier" stroke-linecap="round" stroke-linejoin="round" stroke="#CCCCCC" stroke-width="14.336000000000002"/>
<g id="SVGRepo_iconCarrier"> <title>product</title> <g id="Page-1" stroke-width="0.00512" fill="none" fill-rule="evenodd"> <g id="icon" fill="#09213b" transform="translate(64.000000, 34.346667)"> <path d="M192,7.10542736e-15 L384,110.851252 L384,332.553755 L192,443.405007 L1.42108547e-14,332.553755 L1.42108547e-14,110.851252 L192,7.10542736e-15 Z M127.999,206.918 L128,357.189 L170.666667,381.824 L170.666667,231.552 L127.999,206.918 Z M42.6666667,157.653333 L42.6666667,307.920144 L85.333,332.555 L85.333,182.286 L42.6666667,157.653333 Z M275.991,97.759 L150.413,170.595 L192,194.605531 L317.866667,121.936377 L275.991,97.759 Z M192,49.267223 L66.1333333,121.936377 L107.795,145.989 L233.374,73.154 L192,49.267223 Z" id="Combined-Shape"> </path> </g> </g> </g>
</svg>