<svg xmlns="http://www.w3.org/2000/svg" width="24" height="24" viewBox="0 0 24 24">
  <g id="remove_shopping_cart" transform="translate(-644 -374)">
    <rect id="Path" width="24" height="24" transform="translate(644 374)" fill="rgba(0,0,0,0)"/>
    <path id="Icon" d="M665.46,398h0l-2.84-2.839a1.992,1.992,0,1,1-2.78-2.78L658.46,391H651a2,2,0,0,1-2-2,1.939,1.939,0,0,1,.25-.96l1.35-2.45-2.21-4.66-4.39-4.39,1.41-1.409,21.461,21.46-1.41,1.41ZM652.1,387l-1.1,2h5.46l-2-2H652.1Zm-1.1,9a2,2,0,1,1,2-2A2,2,0,0,1,651,396Zm9.05-9.06h0L658.11,385h1.44l2.76-5h-9.19l-2-2H664a1,1,0,0,1,.868.5.976.976,0,0,1,.012.98l-3.579,6.49a1.987,1.987,0,0,1-1.25.97Z" fill="#df2037"/>
  </g>
</svg>
