<svg xmlns="http://www.w3.org/2000/svg" width="24" height="24" viewBox="0 0 24 24">
  <g id="settings" transform="translate(-406 -374)">
    <rect id="Path" width="24" height="24" transform="translate(406 374)" fill="rgba(0,0,0,0)"/>
    <path id="Icon-2" data-name="Icon" d="M420,396h-4a.488.488,0,0,1-.49-.42l-.38-2.65a7.351,7.351,0,0,1-1.69-.98l-2.49,1a.471.471,0,0,1-.17.03.5.5,0,0,1-.44-.249l-2-3.461a.5.5,0,0,1,.12-.64l2.111-1.65a6.879,6.879,0,0,1,0-1.96l-2.11-1.651a.491.491,0,0,1-.12-.64l2-3.46a.493.493,0,0,1,.43-.25.569.569,0,0,1,.18.03l2.49,1a7.553,7.553,0,0,1,1.69-.98l.38-2.65A.488.488,0,0,1,416,376h4a.488.488,0,0,1,.49.419l.38,2.65a7.312,7.312,0,0,1,1.69.98l2.49-1a.47.47,0,0,1,.17-.03.5.5,0,0,1,.439.25l2,3.46a.5.5,0,0,1-.121.64l-2.11,1.651a6.878,6.878,0,0,1,0,1.96l2.11,1.65a.5.5,0,0,1,.121.64l-2,3.461a.493.493,0,0,1-.429.249.57.57,0,0,1-.18-.03l-2.49-1a7.649,7.649,0,0,1-1.69.98l-.38,2.65A.488.488,0,0,1,420,396Zm-6.25-6.32h0l.909.7a5.682,5.682,0,0,0,1.23.71l1.06.43.159,1.13L417.3,394h1.4l.2-1.35.16-1.13,1.06-.43a5.852,5.852,0,0,0,1.25-.73l.9-.68,1.039.419,1.271.51.7-1.211-1.08-.84-.89-.7.14-1.129c.029-.292.049-.516.049-.73a5.416,5.416,0,0,0-.049-.73l-.14-1.13.89-.7,1.07-.85-.7-1.21-1.27.51-1.059.43-.911-.7a5.7,5.7,0,0,0-1.229-.71l-1.06-.43-.16-1.13-.19-1.35H417.3l-.2,1.35-.159,1.13-1.06.43a5.871,5.871,0,0,0-1.25.73l-.9.68-1.04-.42-1.27-.51-.7,1.211,1.079.84.89.7-.14,1.13c-.031.3-.05.533-.05.73s.018.409.05.74l.14,1.13-.89.7-1.079.84.7,1.211,1.27-.51,1.06-.429ZM418,390a4,4,0,1,1,4-4A4,4,0,0,1,418,390Zm0-6a2,2,0,1,0,2,2A2,2,0,0,0,418,384Z" fill="#fff"/>
  </g>
</svg>
