<svg xmlns="http://www.w3.org/2000/svg" width="24" height="24" viewBox="0 0 24 24">
  <g id="shopping_basket" transform="translate(-678 -418)">
    <rect id="Path" width="24" height="24" transform="translate(678 418)" fill="rgba(0,0,0,0)"/>
    <path id="Icon-2" data-name="Icon" d="M696.5,439h-13a1.993,1.993,0,0,1-1.92-1.461l-2.54-9.27A.819.819,0,0,1,679,428a1,1,0,0,1,1-1h4.791l4.379-6.549a.98.98,0,0,1,.831-.43.993.993,0,0,1,.83.419L695.21,427H700a1,1,0,0,1,1,1l-.031.27-2.54,9.27A2.016,2.016,0,0,1,696.5,439Zm-15.19-10h0l2.2,8.009L696.5,437l2.2-8H681.31Zm8.69-6.2h0l-2.8,4.2h5.6l-2.8-4.2Zm0,12.2a2,2,0,1,1,2-2A2,2,0,0,1,690,435Z" fill="#1d1d1d"/>
  </g>
</svg>
