<!DOCTYPE svg PUBLIC "-//W3C//DTD SVG 1.1//EN" "http://www.w3.org/Graphics/SVG/1.1/DTD/svg11.dtd">
<!-- Uploaded to: SVG Repo, www.svgrepo.com, Transformed by: SVG Repo Mixer Tools -->
<svg width="800px" height="800px" viewBox="0 0 1024 1024" class="icon" version="1.1" xmlns="http://www.w3.org/2000/svg" fill="#000000">
<g id="SVGRepo_bgCarrier" stroke-width="0"/>
<g id="SVGRepo_tracerCarrier" stroke-linecap="round" stroke-linejoin="round"/>
<g id="SVGRepo_iconCarrier">
<path d="M511.585326 660.83709L75.311885 408.257891l22.414898-38.714128 413.858543 239.601453L925.44387 369.543763l22.414898 38.714128z" fill="#23cd78"/>
<path d="M891.90753 232.297055c12.33577 0 22.371894 10.036124 22.371895 22.371894v514.55357c0 12.33577-10.036124 22.371894-22.371895 22.371894h-760.644407c-12.33577 0-22.371894-10.036124-22.371895-22.371894v-514.55357c0-12.33577 10.036124-22.371894 22.371895-22.371894h760.644407m0-44.743789h-760.644407c-37.066697 0-67.115683 30.048987-67.115684 67.115683v514.55357c0 37.066697 30.048987 67.115683 67.115684 67.115683h760.644407c37.066697 0 67.115683-30.048987 67.115683-67.115683v-514.55357c0-37.066697-30.048987-67.115683-67.115683-67.115683z" fill="#22C67F"/>
</g>
</svg>