<!DOCTYPE svg PUBLIC "-//W3C//DTD SVG 1.1//EN" "http://www.w3.org/Graphics/SVG/1.1/DTD/svg11.dtd">
<!-- Uploaded to: SVG Repo, www.svgrepo.com, Transformed by: SVG Repo Mixer Tools -->
<svg width="800px" height="800px" viewBox="-5.52 -5.52 35.04 35.04" id="Layer_1" data-name="Layer 1" xmlns="http://www.w3.org/2000/svg" fill="#09213b" stroke="#09213b">
<g id="SVGRepo_bgCarrier" stroke-width="0">
<path transform="translate(-5.52, -5.52), scale(1.095)" d="M16,26.111689905325573C17.690754760859264,25.576308610536447,19.490555951824074,25.591779413803494,21.047380056646134,24.742318703220985C22.62859126245833,23.87955148995011,23.96258770286002,22.668138268745125,25.004278941574277,21.19862287077639C26.114414944361148,19.63255234113621,26.655082296908905,17.82689316874654,27.244522877865368,16C28.057658646326434,13.479793165488367,29.839873954180998,10.971542830886237,29.126869498455253,8.421198361449775C28.410611539974568,5.859216443339978,26.210848324443827,3.2444366819726094,23.57598428179821,2.8780103065823024C20.741510929809166,2.483824580222435,18.806082095232902,6.033949398019603,16,6.595665380358696C13.975412621142823,7.000943290893846,12.012577793501334,5.16380447156674,9.993752770953712,5.596874636472037C7.7198406472769765,6.084665052868863,4.957478132181112,6.972197417551848,4.123834042205301,9.143292387326554C3.259741192671188,11.393686364324862,6.094140090103248,13.591282455747214,5.999222776956028,15.999999999999998C5.898067731610974,18.567012532628283,3.035729810880889,20.663312826648102,3.5708661495980305,23.175963774323453C4.1006893143119,25.66366752494153,6.218839912293018,28.069293898272893,8.694225335286717,28.65397290793287C11.247161258410951,29.256969125569345,13.499199009422421,26.90357415923411,16,26.111689905325573" fill="#3cc6b9" strokewidth="0"/>
</g>
<g id="SVGRepo_tracerCarrier" stroke-linecap="round" stroke-linejoin="round"/>
<g id="SVGRepo_iconCarrier">
<defs>
<style>.cls-1{fill:none;stroke:#09213b;stroke-miterlimit:10;stroke-width:0.9120000000000001;}.cls-2{fill:#09213b;}</style>
</defs>
<path class="cls-1" d="M14.83,9.14h5.76a1.92,1.92,0,0,1,1.91,1.91v9.54a1.92,1.92,0,0,1-1.91,1.91H3.41A1.92,1.92,0,0,1,1.5,20.59V11.05A1.92,1.92,0,0,1,3.41,9.14H7.27"/>
<line class="cls-1" x1="18.68" y1="9.14" x2="18.68" y2="22.5"/>
<path class="cls-1" d="M15.82,6.15c0,3.11-4.77,7.76-4.77,7.76S6.27,9.26,6.27,6.15A4.72,4.72,0,0,1,11.05,1.5,4.71,4.71,0,0,1,15.82,6.15Z"/>
<circle class="cls-2" cx="11.05" cy="5.8" r="1.43"/>
</g>
</svg>