<!DOCTYPE svg PUBLIC "-//W3C//DTD SVG 1.1//EN" "http://www.w3.org/Graphics/SVG/1.1/DTD/svg11.dtd">
<!-- Uploaded to: SVG Repo, www.svgrepo.com, Transformed by: SVG Repo Mixer Tools -->
<svg width="800px" height="800px" viewBox="-17.43 -17.43 110.63 110.63" xmlns="http://www.w3.org/2000/svg" fill="#09213b" transform="rotate(0)">
<g id="SVGRepo_bgCarrier" stroke-width="0" transform="translate(0,0), scale(1)">
<path transform="translate(-17.43, -17.43), scale(3.4571875)" d="M16,28.56928867912468C18.68184783672485,29.002848663918428,21.70357197407391,28.441619589659545,23.70359989406792,26.603095616738734C25.64150969572251,24.821673671533663,25.388769660156367,21.816186368118196,26.10255857100759,19.28252026206693C26.77882735619527,16.882035646009882,28.135542530909923,14.643052441716467,27.767922584503513,12.176370168550761C27.36004597503527,9.439570895145778,25.952214496370765,6.95836023790894,23.977037611823697,5.0205496521673165C21.756231916808396,2.8417570496694515,19.094157113796104,0.3065623241793883,16.000000000000004,0.63107256262618C12.918545174064295,0.9542506054827679,11.048112386841897,4.124456581723136,9.152566561532542,6.575316413663625C7.71629697256761,8.43235167835175,6.963558259232417,10.611905446749851,6.500558834309922,12.913444462061612C6.087612277842766,14.966174033176948,6.047152326381986,17.032930818922082,6.64513720518049,19.03957917759327C7.255762921987855,21.08864619556848,8.418042606996089,22.848296120771366,9.915856611756933,24.37410496113198C11.684853011129725,26.17616472032089,13.507139658566993,28.166281291112483,16,28.56928867912468" fill="#3cc6b9" strokewidth="0"/>
</g>
<g id="SVGRepo_tracerCarrier" stroke-linecap="round" stroke-linejoin="round" stroke="#CCCCCC" stroke-width="1.212336"/>
<g id="SVGRepo_iconCarrier"> <g id="Group_14" data-name="Group 14" transform="translate(-961.261 -404.164)"> <path id="Path_38" data-name="Path 38" d="M987.193,409.126a21.406,21.406,0,0,0-21.407,21.406h21.407Z" fill="#09213b"/> <path id="Path_39" data-name="Path 39" d="M962.761,447.8a30.632,30.632,0,1,0,30.632-30.632V447.8Z" fill="none" stroke="#09213b" stroke-linecap="round" stroke-linejoin="round" stroke-width="3" opacity="0.15"/> <path id="Path_40" data-name="Path 40" d="M962.761,436.3a30.632,30.632,0,1,0,30.632-30.632V436.3Z" fill="none" stroke="#09213b" stroke-linejoin="round" stroke-width="3"/> </g> </g>
</svg>