<!DOCTYPE svg PUBLIC "-//W3C//DTD SVG 1.1//EN" "http://www.w3.org/Graphics/SVG/1.1/DTD/svg11.dtd">
<!-- Uploaded to: SVG Repo, www.svgrepo.com, Transformed by: SVG Repo Mixer Tools -->
<svg width="800px" height="800px" viewBox="-2.4 -2.4 28.80 28.80" id="Layer_1" data-name="Layer 1" xmlns="http://www.w3.org/2000/svg" fill="#000000">
<g id="SVGRepo_bgCarrier" stroke-width="0">
<path transform="translate(-2.4, -2.4), scale(0.8999999999999999)" d="M16,27.034705334945635C17.852737671714785,26.77045937868955,19.09590442703345,25.10523027209297,20.71483757160604,24.16633822345633C22.330010644857467,23.229626809071064,24.041830829421013,22.626110450051964,25.534909903545365,21.504982799510746C27.754144875143602,19.83859705154492,31.270415395795876,18.756701101028753,31.590484700439607,16C31.897425690434048,13.356370783476512,28.62140320642054,11.737965481281982,26.905079699956595,9.70394929969574C25.475265697065606,8.009475730123402,24.36944692177693,5.907957580955139,22.333676617154307,5.029750300377776C20.36151487035608,4.178983000854054,18.137179839832257,4.785876111142283,16,4.9996266332181065C14.051622793915575,5.19449401744061,12.179503131478953,5.509365725016542,10.357853141448956,6.227514977224454C8.29557368247676,7.040527608306361,6.252438378432595,7.902812385546547,4.677855430213405,9.463156784829842C2.808687063413773,11.315422742461255,0.5276476815621883,13.368709427066078,0.4961916482185629,15.999999999999996C0.4647605097248374,18.629208123976028,2.6319237608446095,20.79820099065932,4.5204784887728575,22.62770483467508C6.137103709347286,24.1937817990521,8.337734466084786,24.82524426745533,10.439005767269165,25.631924551687298C12.254672294299409,26.328960859787863,14.0746180512909,27.309312151637577,16,27.034705334945635" fill="#3cc6b9" strokewidth="0"/>
</g>
<g id="SVGRepo_tracerCarrier" stroke-linecap="round" stroke-linejoin="round"/>
<g id="SVGRepo_iconCarrier">
<defs>
<style>.cls-1{fill:none;stroke:#09213b;stroke-miterlimit:10;stroke-width:1.104;}</style>
</defs>
<circle class="cls-1" cx="12" cy="3.41" r="1.91"/>
<path class="cls-1" d="M9.14,8.18h0A2.86,2.86,0,0,1,12,5.32h0a2.86,2.86,0,0,1,2.86,2.86h0"/>
<circle class="cls-1" cx="19.64" cy="14.86" r="1.91"/>
<path class="cls-1" d="M16.77,19.64h0a2.86,2.86,0,0,1,2.87-2.87h0a2.86,2.86,0,0,1,2.86,2.87h0"/>
<circle class="cls-1" cx="4.36" cy="14.86" r="1.91"/>
<path class="cls-1" d="M1.5,19.64h0a2.86,2.86,0,0,1,2.86-2.87h0a2.86,2.86,0,0,1,2.87,2.87h0"/>
<path class="cls-1" d="M2.47,11.37A9.53,9.53,0,0,1,7.38,3.65"/>
<path class="cls-1" d="M16.62,3.65a9.53,9.53,0,0,1,4.91,7.72"/>
<path class="cls-1" d="M8.39,21.79a9.53,9.53,0,0,0,7.22,0"/>
</g>
</svg>