<svg xmlns="http://www.w3.org/2000/svg" width="21.537" height="11.474" viewBox="0 0 21.537 11.474">
  <g id="toggle_on" transform="translate(-135.207 -4326.263)">
    <path id="Icon" d="M151,4336H141a4,4,0,0,1,0-8h10a4,4,0,0,1,0,8Zm0-7a3,3,0,1,0,3,3A3,3,0,0,0,151,4329Z" fill="#e50505"/>
    <path id="Icon-2" data-name="Icon" d="M150.87,4337.737h-9.79a5.739,5.739,0,1,1,0-11.474h9.79a5.739,5.739,0,1,1,0,11.474ZM141,4328a4,4,0,1,0,0,8h10a4,4,0,0,0,0-8Zm0,7a3,3,0,1,1,3-3A3,3,0,0,1,141,4335Z" fill="#fff"/>
    <circle id="Ellipse_1" data-name="Ellipse 1" cx="4" cy="4" r="4" transform="translate(147 4328)" fill="#e50505"/>
    <text id="Off" transform="translate(145 4334)" fill="#fff" font-size="5" font-family="Cairo" font-weight="700"><tspan x="0" y="0">Off</tspan></text>
  </g>
</svg>
