<svg id="eqkZB0vHlpr1" xmlns="http://www.w3.org/2000/svg" xmlns:xlink="http://www.w3.org/1999/xlink" viewBox="0 0 495.88 424.11" shape-rendering="geometricPrecision" text-rendering="geometricPrecision"><path d="M662.5,410.62c.22-1.16.44-2.32.65-3.48c1.51-8.16,5.65-14.79,11.52-20.56c6.47-6.35,13.72-11.21,22.8-12.69c12.12-2,22.47,1.84,31.69,9.76c8.199247,6.907897,14.867858,15.449714,19.58,25.08c3.36,7,6.46,14.07,9.89,21c3.21,6.49,7.11,12.5,13,16.93c12.63,9.46,30,4.86,36.59-9.48c2.713856-5.820726,4.081059-12.178217,4-18.6-.06-11.27,2.25-22.15,5.44-32.9c1.25-4.23,2-8.61,2.89-12.94.184235-1.268825.287776-2.548062.31-3.83l-3.69-.56c-9.35-1.36-17.82-5-24.61-11.45-8.736494-8.495255-16.266652-18.148527-22.38-28.69-5.27-8.9-11.55-17.21-17.54-25.66-6.13-8.63-14.58-14.35-24.18-18.51-4.750404-2.099072-10.043945-2.638229-15.12-1.54-13,2.74-20.88,17-16,29.37c1.326331,3.383611,3.142372,6.554103,5.39,9.41c4.54,5.73,11.74,6.25,17.46,1.63c1.66-1.34,3.12-2.94,4.82-4.22.846271-.397617,1.757736-.638189,2.69-.71.116348.867795.06886,1.749716-.14,2.6-1.905888,4.094831-4.93716,7.563105-8.74,10-5,3.11-13.08,2.8-18.36-2.34-3.72-3.62-7.23-7.3-9.73-11.87-6.4-11.71-5-24.51,3.93-35.66c10.83-13.6,24.14-16.38,41.1-11.4c11.54,3.38,20.7,10.73,29,19.09c7.29,7.36,14,15.24,21.16,22.76c6.304681,6.713391,13.677795,12.33615,21.82,16.64c3.912522,2.136819,7.961247,4.014198,12.12,5.62-1.61-1.82-3.19-3.67-4.84-5.46-9.32-10.13-13.65-22.51-15.49-35.8-1.37-9.95-1.87-20-2.93-30-.678482-7.816624-2.59576-15.475611-5.68-22.69-2.544049-5.678908-6.685782-10.494715-11.92-13.86-12.2-8.07-28.59,0-30.4,15-.48,4,0,8-.1,12.06-.118561.854705-.343644,1.691208-.67,2.49-.64-.59-1.59-1.06-1.88-1.79-4.57-11.54-2-24.58,7-32.65c10.8-9.7,22.62-10.93,34.45-2.44c9.894767,7.029977,17.259112,17.06302,21,28.61c2.79,8.39,5.51,16.81,8,25.29c2.13,7.12,3.78,14.39,7.6,20.87c5,8.48,11.56,15.06,21.65,17.05c6.2,1.23,12.44.94,19,0-.36-.71-.65-1.3-1-1.88-5.64-10.6-11.59-21-16.84-31.84-4.32464-8.87683-8.176688-17.97621-11.54-27.26-4.49-12.46-7.71-25.28-7.76-38.67.007496-14.313095,3.714011-28.381317,10.76-40.84c6.67-12.17,15.92-21.85,26.81-30.34c24.58-19.19,62.07-19.43,88-2c10.03304,6.568088,18.601912,15.13696,25.17,25.17c9.86,15.38,15.84,32,15.11,50.54-.486053,10.45629-2.535452,20.780815-6.08,30.63-3.34,9.52-7.07,18.94-11.27,28.11-4.37,9.55-9.49,18.75-14.3,28.09-1.76,3.41-3.6,6.79-5.51,10.4c12.17,1.85,23.82,1.57,33.24-7.44c6.39-6.1,10.3-13.91,12.86-22.36c3.38-11.2,6.59-22.45,10.26-33.55c3.213203-10.356805,9.51458-19.484381,18.06-26.16c5.25-4.09,10.72-7.25,17.35-8c7.5-.8,13.81,1.89,18.93,7.3c2.382209,2.419165,4.572178,5.020381,6.55,7.78c4.64,6.81,4.26,14.35,2.62,22-.377943,1.613649-.841939,3.205924-1.39,4.77-.32,1-.35,2.6-1.92,2-.55-.22-.76-1.79-.79-2.74-.1-4.66.3-9.36-.22-14-.85-7.58-4.89-13.08-12.22-15.82-7.49-2.81-14.4-1.73-20.38,3.6-7.64,6.82-11.81,15.7-13.39,25.58s-2.46,20.11-3.36,30.2c-1.47,16.48-5.41,32-16.79,44.71-1.661224,1.796192-3.154148,3.74101-4.46,5.81l10.78-5.21c.28-.13.53-.34.81-.48c12.23-6.14,21.65-15.66,30.48-25.76c9-10.34,18.38-20.24,30.1-27.67s24.16-10.27,37.07-5.64c12.46,4.47,20.68,14.18,23,27.36c2.21,12.71-3,23.13-12.87,31.38-4.34,3.63-9,5.48-14.58,4.39-6.12-1.2-9.28-5.88-12.09-10.82-.193932-.778496.033685-1.60171.6-2.17.843351-.227197,1.743369-.089291,2.48.38c2.36,1.57,4.45,3.6,6.92,4.93c4.62,2.48,9.28,1.92,12.91-1.81c10.55-10.84,12.26-25.34-.62-36.34-6.64-5.67-14.47-5.67-22.23-2.88-9.505753,3.265438-17.890261,9.160254-24.18,17-5.37,6.82-10,14.2-14.9,21.39-5.55,8.18-10.62,16.7-16.57,24.55-7.55,9.95-17,17.6-29.53,20.69-2.82.69-5.69,1.18-9,1.87.65,3.77,1.13,7.52,2,11.18c1.81,7.86,4.19,15.6,5.59,23.52c1.08,6,1.14,12.28,1.45,18.45.49,9.69,3.56,18.11,11.46,24.26c8.79,6.84,19.56,7,28.64.52c5.93-4.21,9.78-10.07,13-16.38c3.58-7.13,6.8-14.44,10.27-21.62c4.537118-9.355328,10.890485-17.714306,18.69-24.59c5.88-5.25,12.38-9,20.1-10.43c11.53-2.15,21.75,1.22,30.61,8.38c5.32,4.29,10.17,9.22,13.34,15.53c6.14,12.19,4.31,28-4.29,38.64-5.56,6.88-12.32,11-21.35,10.78-5.047627-.113747-9.969546-1.596545-14.24-4.29-8.09-5-12.58-17.28-1.45-26.3.51-.42,1.49-.27,2.25-.38.145832.863889.145832,1.746111,0,2.61-.84,2.28-2.22,4.4-2.77,6.73-1.11,4.69.87,8.58,5.09,11c1.153782.787049,2.383203,1.457034,3.67,2c5.18,1.69,9.94,1.53,14.71-2c10-7.33,14.32-23.16,8-32.79-9.47-14.34-30.38-20.64-45.25-4.1-5.76,6.41-9.16,14.16-12.12,22.11-2.18,5.85-4,11.83-6.38,17.59-3.746389,9.184782-9.319001,17.513082-16.38,24.48-9.42,9.33-20.74,14.35-33.76,14.56-12.22.19-23.59-3.34-32.34-12.47-7.554415-8.038794-13.25186-17.638083-16.69-28.12-3.22-9.41-6.11-18.94-9.18-28.4-.322704-.798723-.707203-1.571064-1.15-2.31c1.3,7.56,2.86,15.13,3.85,22.78c1.445034,9.974602,1.445034,20.105398,0,30.08-2.14,13.43-4.52,26.82-6.58,40.27-1.71,11.12,1.65,20.27,11.22,26.79c6.82,4.64,14.08,7.91,22.54,7.63c7.640772-.161543,14.859023-3.538291,19.88-9.3c6.1-6.77,6.6-18.88,1.33-26.34-3.8-5.38-9.15-6.9-15.2-4.34-1.005441.457612-2.045314.835443-3.11,1.13-.520549.180887-1.098019-.003475-1.417452-.452534s-.304176-1.055052.037452-1.487466c2.27-4,5.67-6.38,10.34-6.41c8.67-.06,14.47,4.92,18.23,12c7,13.11,5.83,29.85-9.88,40.58-10.6,7.24-22.56,10.6-35.16,7.25-15.86-4.21-27.82-13.67-34.81-29-6.05-13.28-6-27-4-41c2.37-17.18,1.58-34.11-4.52-50.55-2.9-7.84-6.55-15.29-12.58-21.23-12.8-12.6-34.32-10.82-45,3.58-7.48,10.07-11.48,21.52-13.71,33.73-2.39,13.11-1.62,26.17.25,39.25s.7,25.88-5.13,37.8c-5.784992,12.17061-16.243791,21.486154-29,25.83-7.604415,2.902637-15.902713,3.466768-23.83,1.62-8.26-2-16-5.46-22-11.84-9.12-9.66-10.84-26-3.78-37.28c3.35-5.33,8-9.08,14.34-10.37c5.48-1.1,10.34.84,13.21,5.56.252901.685378.384861,1.409469.39,2.14-.778636.143792-1.575063.16404-2.36.06-1.43-.44-2.75-1.23-4.17-1.71-4.124678-1.605157-8.813246-.435018-11.7,2.92-7.32,7.73-7.37,21.15,0,28.76c7.9,8.11,17.39,11.2,28.37,7.79c4.292775-1.356025,8.408506-3.219182,12.26-5.55c10.72-6.43,14.6-16.31,12.75-28.37-1.53-9.93-3.68-19.76-5.42-29.65-3.393411-19.264463-2.684646-39.028102,2.08-58c.42-1.68.82-3.36,1.23-5c0-.06-.07-.14-.37-.73-1.06,2.9-2.07,5.4-2.9,8-3,9.32-5.64,18.79-9.15,27.92-2.13,5.55-5.39,10.72-8.57,15.8-7.59,12.09-18.53,18.8-32.84,20.33-14.61,1.56-27.15-3.15-37.8-12.59-8.216989-7.142429-14.558582-16.189585-18.47-26.35-2.31-6.14-4.34-12.38-6.86-18.42-2.226206-5.653006-4.839054-11.146-7.82-16.44-3.901091-7.034914-10.589841-12.096867-18.42-13.94-11.57-2.68-26.5,4.61-31.62,15.3-2.296524,4.751853-2.707436,10.19733-1.15,15.24c1.972056,6.794975,6.103807,12.762671,11.77,17c3,2.3,11.65,2,14.82-.32.284816-.259241.596596-.48721.93-.68c7.43-3.3,6.94-10.34,4.77-15.5-.46-1.09-1.23-2.05-1.63-3.15-.120102-.721704-.120102-1.458296,0-2.18.722848-.074995,1.453388-.007038,2.15.2c5.62,3.07,8.42,11.72,6,17.66-2.18,5.37-6.28,8.56-11.35,10.82-10,4.46-22,2.28-29.22-5.84-4.946187-5.369713-8.234833-12.054659-9.47-19.25-.119882-.523847-.276946-1.038484-.47-1.54l-.03-7.6Z" transform="translate(-662.318842-124.247065)" fill="#3cc6b9"/><ellipse id="eqkZB0vHlpr11" rx="3.002838" ry="3.012121" transform="translate(269.101161 101.362935)" fill="#fbfbfb" stroke-width="0"/><ellipse id="eqkZB0vHlpr12" rx="3.002838" ry="3.012121" transform="translate(264.648803 104.416817)" fill="#fbfbfb" stroke-width="0"/><ellipse id="eqkZB0vHlpr13" rx="3.002838" ry="3.012121" transform="translate(260.339266 104.138949)" fill="#fbfbfb" stroke-width="0"/><ellipse id="eqkZB0vHlpr16" rx="3.002838" ry="3.012121" transform="translate(269.101158 103.532935)" fill="#fbfbfb" stroke-width="0"/>
<script><![CDATA[
!function(t,n){"object"==typeof exports&&"undefined"!=typeof module?module.exports=n():"function"==typeof __SVGATOR_DEFINE__&&__SVGATOR_DEFINE__.amd?__SVGATOR_DEFINE__(n):((t="undefined"!=typeof globalThis?globalThis:t||self).__SVGATOR_PLAYER__=t.__SVGATOR_PLAYER__||{},t.__SVGATOR_PLAYER__["5c7f360c"]=n())}(this,(function(){"use strict";function t(t,n){var e=Object.keys(t);if(Object.getOwnPropertySymbols){var r=Object.getOwnPropertySymbols(t);n&&(r=r.filter((function(n){return Object.getOwnPropertyDescriptor(t,n).enumerable}))),e.push.apply(e,r)}return e}function n(n){for(var e=1;e<arguments.length;e++){var r=null!=arguments[e]?arguments[e]:{};e%2?t(Object(r),!0).forEach((function(t){u(n,t,r[t])})):Object.getOwnPropertyDescriptors?Object.defineProperties(n,Object.getOwnPropertyDescriptors(r)):t(Object(r)).forEach((function(t){Object.defineProperty(n,t,Object.getOwnPropertyDescriptor(r,t))}))}return n}function e(t){return(e="function"==typeof Symbol&&"symbol"==typeof Symbol.iterator?function(t){return typeof t}:function(t){return t&&"function"==typeof Symbol&&t.constructor===Symbol&&t!==Symbol.prototype?"symbol":typeof t})(t)}function r(t,n){if(!(t instanceof n))throw new TypeError("Cannot call a class as a function")}function i(t,n){for(var e=0;e<n.length;e++){var r=n[e];r.enumerable=r.enumerable||!1,r.configurable=!0,"value"in r&&(r.writable=!0),Object.defineProperty(t,r.key,r)}}function o(t,n,e){return n&&i(t.prototype,n),e&&i(t,e),t}function u(t,n,e){return n in t?Object.defineProperty(t,n,{value:e,enumerable:!0,configurable:!0,writable:!0}):t[n]=e,t}function a(t){return(a=Object.setPrototypeOf?Object.getPrototypeOf:function(t){return t.__proto__||Object.getPrototypeOf(t)})(t)}function l(t,n){return(l=Object.setPrototypeOf||function(t,n){return t.__proto__=n,t})(t,n)}function s(){if("undefined"==typeof Reflect||!Reflect.construct)return!1;if(Reflect.construct.sham)return!1;if("function"==typeof Proxy)return!0;try{return Boolean.prototype.valueOf.call(Reflect.construct(Boolean,[],(function(){}))),!0}catch(t){return!1}}function f(t,n,e){return(f=s()?Reflect.construct:function(t,n,e){var r=[null];r.push.apply(r,n);var i=new(Function.bind.apply(t,r));return e&&l(i,e.prototype),i}).apply(null,arguments)}function c(t,n){if(n&&("object"==typeof n||"function"==typeof n))return n;if(void 0!==n)throw new TypeError("Derived constructors may only return object or undefined");return function(t){if(void 0===t)throw new ReferenceError("this hasn't been initialised - super() hasn't been called");return t}(t)}function h(t,n,e){return(h="undefined"!=typeof Reflect&&Reflect.get?Reflect.get:function(t,n,e){var r=function(t,n){for(;!Object.prototype.hasOwnProperty.call(t,n)&&null!==(t=a(t)););return t}(t,n);if(r){var i=Object.getOwnPropertyDescriptor(r,n);return i.get?i.get.call(e):i.value}})(t,n,e||t)}function v(t){return function(t){if(Array.isArray(t))return y(t)}(t)||function(t){if("undefined"!=typeof Symbol&&null!=t[Symbol.iterator]||null!=t["@@iterator"])return Array.from(t)}(t)||function(t,n){if(!t)return;if("string"==typeof t)return y(t,n);var e=Object.prototype.toString.call(t).slice(8,-1);"Object"===e&&t.constructor&&(e=t.constructor.name);if("Map"===e||"Set"===e)return Array.from(t);if("Arguments"===e||/^(?:Ui|I)nt(?:8|16|32)(?:Clamped)?Array$/.test(e))return y(t,n)}(t)||function(){throw new TypeError("Invalid attempt to spread non-iterable instance.\nIn order to be iterable, non-array objects must have a [Symbol.iterator]() method.")}()}function y(t,n){(null==n||n>t.length)&&(n=t.length);for(var e=0,r=new Array(n);e<n;e++)r[e]=t[e];return r}function g(t,n,e){if(Number.isInteger(t))return t;var r=Math.pow(10,n);return Math[e]((+t+Number.EPSILON)*r)/r}Number.isInteger||(Number.isInteger=function(t){return"number"==typeof t&&isFinite(t)&&Math.floor(t)===t}),Number.EPSILON||(Number.EPSILON=2220446049250313e-31);var d=p(Math.pow(10,-6));function p(t){var n=arguments.length>1&&void 0!==arguments[1]?arguments[1]:6;return g(t,n,"round")}function m(t,n){var e=arguments.length>2&&void 0!==arguments[2]?arguments[2]:d;return Math.abs(t-n)<e}p(Math.pow(10,-2)),p(Math.pow(10,-4));var b=Math.PI/180;function w(t){return t}function A(t,n,e){var r=1-e;return 3*e*r*(t*r+n*e)+e*e*e}function _(){var t=arguments.length>0&&void 0!==arguments[0]?arguments[0]:0,n=arguments.length>1&&void 0!==arguments[1]?arguments[1]:0,e=arguments.length>2&&void 0!==arguments[2]?arguments[2]:1,r=arguments.length>3&&void 0!==arguments[3]?arguments[3]:1;return t<0||t>1||e<0||e>1?null:m(t,n)&&m(e,r)?w:function(i){if(i<=0)return t>0?i*n/t:0===n&&e>0?i*r/e:0;if(i>=1)return e<1?1+(i-1)*(r-1)/(e-1):1===e&&t<1?1+(i-1)*(n-1)/(t-1):1;for(var o,u=0,a=1;u<a;){var l=A(t,e,o=(u+a)/2);if(m(i,l))break;l<i?u=o:a=o}return A(n,r,o)}}function x(){return 1}function k(t){return 1===t?1:0}function S(){var t=arguments.length>0&&void 0!==arguments[0]?arguments[0]:1,n=arguments.length>1&&void 0!==arguments[1]?arguments[1]:0;if(1===t){if(0===n)return k;if(1===n)return x}var e=1/t;return function(t){return t>=1?1:(t+=n*e)-t%e}}var O=Math.sin,j=Math.cos,M=Math.acos,E=Math.asin,P=Math.tan,I=Math.atan2,R=Math.PI/180,F=180/Math.PI,N=Math.sqrt,T=function(){function t(){var n=arguments.length>0&&void 0!==arguments[0]?arguments[0]:1,e=arguments.length>1&&void 0!==arguments[1]?arguments[1]:0,i=arguments.length>2&&void 0!==arguments[2]?arguments[2]:0,o=arguments.length>3&&void 0!==arguments[3]?arguments[3]:1,u=arguments.length>4&&void 0!==arguments[4]?arguments[4]:0,a=arguments.length>5&&void 0!==arguments[5]?arguments[5]:0;r(this,t),this.m=[n,e,i,o,u,a],this.i=null,this.w=null,this.s=null}return o(t,[{key:"determinant",get:function(){var t=this.m;return t[0]*t[3]-t[1]*t[2]}},{key:"isIdentity",get:function(){if(null===this.i){var t=this.m;this.i=1===t[0]&&0===t[1]&&0===t[2]&&1===t[3]&&0===t[4]&&0===t[5]}return this.i}},{key:"point",value:function(t,n){var e=this.m;return{x:e[0]*t+e[2]*n+e[4],y:e[1]*t+e[3]*n+e[5]}}},{key:"translateSelf",value:function(){var t=arguments.length>0&&void 0!==arguments[0]?arguments[0]:0,n=arguments.length>1&&void 0!==arguments[1]?arguments[1]:0;if(!t&&!n)return this;var e=this.m;return e[4]+=e[0]*t+e[2]*n,e[5]+=e[1]*t+e[3]*n,this.w=this.s=this.i=null,this}},{key:"rotateSelf",value:function(){var t=arguments.length>0&&void 0!==arguments[0]?arguments[0]:0;if(t%=360){var n=O(t*=R),e=j(t),r=this.m,i=r[0],o=r[1];r[0]=i*e+r[2]*n,r[1]=o*e+r[3]*n,r[2]=r[2]*e-i*n,r[3]=r[3]*e-o*n,this.w=this.s=this.i=null}return this}},{key:"scaleSelf",value:function(){var t=arguments.length>0&&void 0!==arguments[0]?arguments[0]:1,n=arguments.length>1&&void 0!==arguments[1]?arguments[1]:1;if(1!==t||1!==n){var e=this.m;e[0]*=t,e[1]*=t,e[2]*=n,e[3]*=n,this.w=this.s=this.i=null}return this}},{key:"skewSelf",value:function(t,n){if(n%=360,(t%=360)||n){var e=this.m,r=e[0],i=e[1],o=e[2],u=e[3];t&&(t=P(t*R),e[2]+=r*t,e[3]+=i*t),n&&(n=P(n*R),e[0]+=o*n,e[1]+=u*n),this.w=this.s=this.i=null}return this}},{key:"resetSelf",value:function(){var t=arguments.length>0&&void 0!==arguments[0]?arguments[0]:1,n=arguments.length>1&&void 0!==arguments[1]?arguments[1]:0,e=arguments.length>2&&void 0!==arguments[2]?arguments[2]:0,r=arguments.length>3&&void 0!==arguments[3]?arguments[3]:1,i=arguments.length>4&&void 0!==arguments[4]?arguments[4]:0,o=arguments.length>5&&void 0!==arguments[5]?arguments[5]:0,u=this.m;return u[0]=t,u[1]=n,u[2]=e,u[3]=r,u[4]=i,u[5]=o,this.w=this.s=this.i=null,this}},{key:"recomposeSelf",value:function(){var t=arguments.length>0&&void 0!==arguments[0]?arguments[0]:null,n=arguments.length>1&&void 0!==arguments[1]?arguments[1]:null,e=arguments.length>2&&void 0!==arguments[2]?arguments[2]:null,r=arguments.length>3&&void 0!==arguments[3]?arguments[3]:null,i=arguments.length>4&&void 0!==arguments[4]?arguments[4]:null;return this.isIdentity||this.resetSelf(),t&&(t.x||t.y)&&this.translateSelf(t.x,t.y),n&&this.rotateSelf(n),e&&(e.x&&this.skewSelf(e.x,0),e.y&&this.skewSelf(0,e.y)),!r||1===r.x&&1===r.y||this.scaleSelf(r.x,r.y),i&&(i.x||i.y)&&this.translateSelf(i.x,i.y),this}},{key:"decompose",value:function(){var t=arguments.length>0&&void 0!==arguments[0]?arguments[0]:0,n=arguments.length>1&&void 0!==arguments[1]?arguments[1]:0,e=this.m,r=e[0]*e[0]+e[1]*e[1],i=[[e[0],e[1]],[e[2],e[3]]],o=N(r);if(0===o)return{origin:{x:p(e[4]),y:p(e[5])},translate:{x:p(t),y:p(n)},scale:{x:0,y:0},skew:{x:0,y:0},rotate:0};i[0][0]/=o,i[0][1]/=o;var u=e[0]*e[3]-e[1]*e[2]<0;u&&(o=-o);var a=i[0][0]*i[1][0]+i[0][1]*i[1][1];i[1][0]-=i[0][0]*a,i[1][1]-=i[0][1]*a;var l=N(i[1][0]*i[1][0]+i[1][1]*i[1][1]);if(0===l)return{origin:{x:p(e[4]),y:p(e[5])},translate:{x:p(t),y:p(n)},scale:{x:p(o),y:0},skew:{x:0,y:0},rotate:0};i[1][0]/=l,i[1][1]/=l,a/=l;var s=0;return i[1][1]<0?(s=M(i[1][1])*F,i[0][1]<0&&(s=360-s)):s=E(i[0][1])*F,u&&(s=-s),a=I(a,N(i[0][0]*i[0][0]+i[0][1]*i[0][1]))*F,u&&(a=-a),{origin:{x:p(e[4]),y:p(e[5])},translate:{x:p(t),y:p(n)},scale:{x:p(o),y:p(l)},skew:{x:p(a),y:0},rotate:p(s)}}},{key:"clone",value:function(){var t=this.m;return new this.constructor(t[0],t[1],t[2],t[3],t[4],t[5])}},{key:"toString",value:function(){var t=arguments.length>0&&void 0!==arguments[0]?arguments[0]:" ";if(null===this.s){var n=this.m.map((function(t){return p(t)}));1===n[0]&&0===n[1]&&0===n[2]&&1===n[3]?this.s="translate("+n[4]+t+n[5]+")":this.s="matrix("+n.join(t)+")"}return this.s}}],[{key:"create",value:function(t){return t?Array.isArray(t)?f(this,v(t)):t instanceof this?t.clone():(new this).recomposeSelf(t.origin,t.rotate,t.skew,t.scale,t.translate):new this}}]),t}();function q(t,n,e){return t>=.5?e:n}function B(t,n,e){return 0===t||n===e?n:t*(e-n)+n}function D(t,n,e){var r=B(t,n,e);return r<=0?0:r}function L(t,n,e){var r=B(t,n,e);return r<=0?0:r>=1?1:r}function C(t,n,e){return 0===t?n:1===t?e:{x:B(t,n.x,e.x),y:B(t,n.y,e.y)}}function V(t,n,e){var r=function(t,n,e){return Math.round(B(t,n,e))}(t,n,e);return r<=0?0:r>=255?255:r}function G(t,n,e){return 0===t?n:1===t?e:{r:V(t,n.r,e.r),g:V(t,n.g,e.g),b:V(t,n.b,e.b),a:B(t,null==n.a?1:n.a,null==e.a?1:e.a)}}function z(t,n){for(var e=[],r=0;r<t;r++)e.push(n);return e}function Y(t,n){if(--n<=0)return t;var e=(t=Object.assign([],t)).length;do{for(var r=0;r<e;r++)t.push(t[r])}while(--n>0);return t}var $,U=function(){function t(n){r(this,t),this.list=n,this.length=n.length}return o(t,[{key:"setAttribute",value:function(t,n){for(var e=this.list,r=0;r<this.length;r++)e[r].setAttribute(t,n)}},{key:"removeAttribute",value:function(t){for(var n=this.list,e=0;e<this.length;e++)n[e].removeAttribute(t)}},{key:"style",value:function(t,n){for(var e=this.list,r=0;r<this.length;r++)e[r].style[t]=n}}]),t}(),Q=/-./g,H=function(t,n){return n.toUpperCase()};function J(t){return"function"==typeof t?t:q}function Z(t){return t?"function"==typeof t?t:Array.isArray(t)?function(t){var n=arguments.length>1&&void 0!==arguments[1]?arguments[1]:w;if(!Array.isArray(t))return n;switch(t.length){case 1:return S(t[0])||n;case 2:return S(t[0],t[1])||n;case 4:return _(t[0],t[1],t[2],t[3])||n}return n}(t,null):function(t,n){var e=arguments.length>2&&void 0!==arguments[2]?arguments[2]:w;switch(t){case"linear":return w;case"steps":return S(n.steps||1,n.jump||0)||e;case"bezier":case"cubic-bezier":return _(n.x1||0,n.y1||0,n.x2||0,n.y2||0)||e}return e}(t.type,t.value,null):null}function K(t,n,e){var r=arguments.length>3&&void 0!==arguments[3]&&arguments[3],i=n.length-1;if(t<=n[0].t)return r?[0,0,n[0].v]:n[0].v;if(t>=n[i].t)return r?[i,1,n[i].v]:n[i].v;var o,u=n[0],a=null;for(o=1;o<=i;o++){if(!(t>n[o].t)){a=n[o];break}u=n[o]}return null==a?r?[i,1,n[i].v]:n[i].v:u.t===a.t?r?[o,1,a.v]:a.v:(t=(t-u.t)/(a.t-u.t),u.e&&(t=u.e(t)),r?[o,t,e(t,u.v,a.v)]:e(t,u.v,a.v))}function W(t,n){var e=arguments.length>2&&void 0!==arguments[2]?arguments[2]:null;return t&&t.length?"function"!=typeof n?null:("function"!=typeof e&&(e=null),function(r){var i=K(r,t,n);return null!=i&&e&&(i=e(i)),i}):null}function X(t,n){return t.t-n.t}function tt(t,n,r,i,o){var u,a="@"===r[0],l="#"===r[0],s=$[r],f=q;switch(a?(u=r.substr(1),r=u.replace(Q,H)):l&&(r=r.substr(1)),e(s)){case"function":if(f=s(i,o,K,Z,r,a,n,t),l)return f;break;case"string":f=W(i,J(s));break;case"object":if((f=W(i,J(s.i),s.f))&&"function"==typeof s.u)return s.u(n,f,r,a,t)}return f?function(t,n,e){if(arguments.length>3&&void 0!==arguments[3]&&arguments[3])return t instanceof U?function(r){return t.style(n,e(r))}:function(r){return t.style[n]=e(r)};if(Array.isArray(n)){var r=n.length;return function(i){var o=e(i);if(null==o)for(var u=0;u<r;u++)t[u].removeAttribute(n);else for(var a=0;a<r;a++)t[a].setAttribute(n,o)}}return function(r){var i=e(r);null==i?t.removeAttribute(n):t.setAttribute(n,i)}}(n,r,f,a):null}function nt(t,n,r,i){if(!i||"object"!==e(i))return null;var o=null,u=null;return Array.isArray(i)?u=function(t){if(!t||!t.length)return null;for(var n=0;n<t.length;n++)t[n].e&&(t[n].e=Z(t[n].e));return t.sort(X)}(i):(u=i.keys,o=i.data||null),u?tt(t,n,r,u,o):null}function et(t,n,e){if(!e)return null;var r=[];for(var i in e)if(e.hasOwnProperty(i)){var o=nt(t,n,i,e[i]);o&&r.push(o)}return r.length?r:null}function rt(t,n){if(!n.settings.duration||n.settings.duration<0)return null;var e,r,i,o,u,a=function(t,n){if(!n)return null;var e=[];if(Array.isArray(n))for(var r=n.length,i=0;i<r;i++){var o=n[i];if(2===o.length){var u=null;if("string"==typeof o[0])u=t.getElementById(o[0]);else if(Array.isArray(o[0])){u=[];for(var a=0;a<o[0].length;a++)if("string"==typeof o[0][a]){var l=t.getElementById(o[0][a]);l&&u.push(l)}u=u.length?1===u.length?u[0]:new U(u):null}if(u){var s=et(t,u,o[1]);s&&(e=e.concat(s))}}}else for(var f in n)if(n.hasOwnProperty(f)){var c=t.getElementById(f);if(c){var h=et(t,c,n[f]);h&&(e=e.concat(h))}}return e.length?e:null}(t,n.elements);return a?(e=a,r=n.settings,i=r.duration,o=e.length,u=null,function(t,n){var a=r.iterations||1/0,l=(r.alternate&&a%2==0)^r.direction>0?i:0,s=t%i,f=1+(t-s)/i;n*=r.direction,r.alternate&&f%2==0&&(n=-n);var c=!1;if(f>a)s=l,c=!0,-1===r.fill&&(s=r.direction>0?0:i);else if(n<0&&(s=i-s),s===u)return!1;u=s;for(var h=0;h<o;h++)e[h](s);return c}):null}function it(t,n){for(var e=n.querySelectorAll("svg"),r=0;r<e.length;r++)if(e[r].id===t.root&&!e[r].svgatorAnimation)return e[r].svgatorAnimation=!0,e[r];return null}function ot(t){var n=function(t){return t.shadowRoot};return document?Array.from(t.querySelectorAll(":not("+["a","area","audio","br","canvas","circle","datalist","embed","g","head","hr","iframe","img","input","link","object","path","polygon","rect","script","source","style","svg","title","track","video"].join()+")")).filter(n).map(n):[]}function ut(t){var n=arguments.length>1&&void 0!==arguments[1]?arguments[1]:document,e=arguments.length>2&&void 0!==arguments[2]?arguments[2]:0,r=it(t,n);if(r)return r;if(e>=20)return null;for(var i=ot(n),o=0;o<i.length;o++){var u=ut(t,i[o],e+1);if(u)return u}return null}function at(t,n){if($=n,!t||!t.root||!Array.isArray(t.animations))return null;var e=ut(t);if(!e)return null;var r=t.animations.map((function(t){return rt(e,t)})).filter((function(t){return!!t}));return r.length?{svg:e,animations:r,animationSettings:t.animationSettings,options:t.options||void 0}:null}function lt(t){var n=arguments.length>1&&void 0!==arguments[1]?arguments[1]:null,e=arguments.length>2&&void 0!==arguments[2]?arguments[2]:Number,r=arguments.length>3&&void 0!==arguments[3]?arguments[3]:"undefined"!=typeof BigInt&&BigInt,i="0x"+(t.replace(/[^0-9a-fA-F]+/g,"")||27);return n&&r&&e.isSafeInteger&&!e.isSafeInteger(+i)?e(r(i))%n+n:+i}function st(t,n,e){return!t||!e||n>t.length?t:t.substring(0,n)+st(t.substring(n+1),e,e)}function ft(t){var n=arguments.length>1&&void 0!==arguments[1]?arguments[1]:27;return!t||t%n?t%n:[0,1].includes(n)?n:ft(t/n,n)}function ct(t,n,e){if(t&&t.length){var r=lt(e),i=ft(r)+5,o=st(t,ft(r,5),i);return o=o.replace(/\x7c$/g,"==").replace(/\x2f$/g,"="),o=function(t,n,e){var r=+("0x"+t.substring(0,4));t=t.substring(4);for(var i=lt(n,r)%r+e%27,o=[],u=0;u<t.length;u+=2)if("|"!==t[u]){var a=+("0x"+t[u]+t[u+1])-i;o.push(a)}else{var l=+("0x"+t.substring(u+1,u+1+4))-i;u+=3,o.push(l)}return String.fromCharCode.apply(String,o)}(o=(o=atob(o)).replace(/[\x41-\x5A]/g,""),n,r),o=JSON.parse(o)}}var ht=[{key:"alternate",def:!1},{key:"fill",def:1},{key:"iterations",def:0},{key:"direction",def:1},{key:"speed",def:1},{key:"fps",def:100}],vt=function(){function t(n,e){var i=this,o=arguments.length>2&&void 0!==arguments[2]?arguments[2]:null;r(this,t),this._id=0,this._running=!1,this._rollingBack=!1,this._animations=n,this._settings=e,(!o||o<"2022-05-02")&&delete this._settings.speed,ht.forEach((function(t){i._settings[t.key]=i._settings[t.key]||t.def})),this.duration=e.duration,this.offset=e.offset||0,this.rollbackStartOffset=0}return o(t,[{key:"alternate",get:function(){return this._settings.alternate}},{key:"fill",get:function(){return this._settings.fill}},{key:"iterations",get:function(){return this._settings.iterations}},{key:"direction",get:function(){return this._settings.direction}},{key:"speed",get:function(){return this._settings.speed}},{key:"fps",get:function(){return this._settings.fps}},{key:"maxFiniteDuration",get:function(){return this.iterations>0?this.iterations*this.duration:this.duration}},{key:"_apply",value:function(t){for(var n=arguments.length>1&&void 0!==arguments[1]?arguments[1]:{},e=this._animations,r=e.length,i=0,o=0;o<r;o++)n[o]?i++:(n[o]=e[o](t,1),n[o]&&i++);return i}},{key:"_rollback",value:function(t){var n=this,e=1/0,r=null;this.rollbackStartOffset=t,this._rollingBack=!0,this._running=!0;this._id=window.requestAnimationFrame((function i(o){if(n._rollingBack){null==r&&(r=o);var u=Math.round(t-(o-r)*n.speed);if(u>n.duration&&e!==1/0){var a=!!n.alternate&&u/n.duration%2>1,l=u%n.duration;u=(l+=a?n.duration:0)||n.duration}var s=(n.fps?1e3/n.fps:0)*n.speed,f=Math.max(0,u);f<=e-s&&(n.offset=f,e=f,n._apply(f));var c=n.iterations>0&&-1===n.fill&&u>=n.maxFiniteDuration;(u<=0||n.offset<u||c)&&n.stop(),n._id=window.requestAnimationFrame(i)}}))}},{key:"_start",value:function(){var t=this,n=arguments.length>0&&void 0!==arguments[0]?arguments[0]:0,e=-1/0,r=null,i={};this._running=!0;var o=function o(u){null==r&&(r=u);var a=Math.round((u-r)*t.speed+n),l=(t.fps?1e3/t.fps:0)*t.speed;if(a>=e+l&&!t._rollingBack&&(t.offset=a,e=a,t._apply(a,i)===t._animations.length))return void t.pause(!0);t._id=window.requestAnimationFrame(o)};this._id=window.requestAnimationFrame(o)}},{key:"_pause",value:function(){this._id&&window.cancelAnimationFrame(this._id),this._running=!1}},{key:"play",value:function(){if(!this._running)return this._rollingBack?this._rollback(this.offset):this._start(this.offset)}},{key:"stop",value:function(){this._pause(),this.offset=0,this.rollbackStartOffset=0,this._rollingBack=!1,this._apply(0)}},{key:"reachedToEnd",value:function(){return this.iterations>0&&this.offset>=this.iterations*this.duration}},{key:"restart",value:function(){var t=arguments.length>0&&void 0!==arguments[0]&&arguments[0];this.stop(t),this.play(t)}},{key:"pause",value:function(){this._pause()}},{key:"reverse",value:function(){this.direction=-this.direction}}],[{key:"build",value:function(t,n){delete t.animationSettings,t.options=ct(t.options,t.root,"5c7f360c"),t.animations.map((function(n){n.settings=ct(n.s,t.root,"5c7f360c"),delete n.s,t.animationSettings||(t.animationSettings=n.settings)}));var e=t.version;if(!(t=at(t,n)))return null;var r=t.options||{},i=new this(t.animations,t.animationSettings,e);return{el:t.svg,options:r,player:i}}},{key:"push",value:function(t){return this.build(t)}},{key:"init",value:function(){var t=this,n=window.__SVGATOR_PLAYER__&&window.__SVGATOR_PLAYER__["5c7f360c"];Array.isArray(n)&&n.splice(0).forEach((function(n){return t.build(n)}))}}]),t}();function yt(t){return p(t)+""}function gt(t){var n=arguments.length>1&&void 0!==arguments[1]?arguments[1]:" ";return t&&t.length?t.map(yt).join(n):""}function dt(t){if(!t)return"transparent";if(null==t.a||t.a>=1){var n=function(t){return 1===(t=parseInt(t).toString(16)).length?"0"+t:t},e=function(t){return t.charAt(0)===t.charAt(1)},r=n(t.r),i=n(t.g),o=n(t.b);return e(r)&&e(i)&&e(o)&&(r=r.charAt(0),i=i.charAt(0),o=o.charAt(0)),"#"+r+i+o}return"rgba("+t.r+","+t.g+","+t.b+","+t.a+")"}function pt(t){return t?"url(#"+t+")":"none"}!function(){for(var t=0,n=["ms","moz","webkit","o"],e=0;e<n.length&&!window.requestAnimationFrame;++e)window.requestAnimationFrame=window[n[e]+"RequestAnimationFrame"],window.cancelAnimationFrame=window[n[e]+"CancelAnimationFrame"]||window[n[e]+"CancelRequestAnimationFrame"];window.requestAnimationFrame||(window.requestAnimationFrame=function(n){var e=Date.now(),r=Math.max(0,16-(e-t)),i=window.setTimeout((function(){n(e+r)}),r);return t=e+r,i},window.cancelAnimationFrame=window.clearTimeout)}();var mt={f:null,i:function(t,n,e){return 0===t?n:1===t?e:{x:D(t,n.x,e.x),y:D(t,n.y,e.y)}},u:function(t,n){return function(e){var r=n(e);t.setAttribute("rx",yt(r.x)),t.setAttribute("ry",yt(r.y))}}},bt={f:null,i:function(t,n,e){return 0===t?n:1===t?e:{width:D(t,n.width,e.width),height:D(t,n.height,e.height)}},u:function(t,n){return function(e){var r=n(e);t.setAttribute("width",yt(r.width)),t.setAttribute("height",yt(r.height))}}};Object.freeze({M:2,L:2,Z:0,H:1,V:1,C:6,Q:4,T:2,S:4,A:7});var wt={},At=null;function _t(t){var n=function(){if(At)return At;if("object"!==("undefined"==typeof document?"undefined":e(document))||!document.createElementNS)return{};var t=document.createElementNS("http://www.w3.org/2000/svg","svg");return t&&t.style?(t.style.position="absolute",t.style.opacity="0.01",t.style.zIndex="-9999",t.style.left="-9999px",t.style.width="1px",t.style.height="1px",At={svg:t}):{}}().svg;if(!n)return function(t){return null};var r=document.createElementNS(n.namespaceURI,"path");r.setAttributeNS(null,"d",t),r.setAttributeNS(null,"fill","none"),r.setAttributeNS(null,"stroke","none"),n.appendChild(r);var i=r.getTotalLength();return function(t){var n=r.getPointAtLength(i*t);return{x:n.x,y:n.y}}}function xt(t){return wt[t]?wt[t]:wt[t]=_t(t)}function kt(t,n,e,r){if(!t||!r)return!1;var i=["M",t.x,t.y];if(n&&e&&(i.push("C"),i.push(n.x),i.push(n.y),i.push(e.x),i.push(e.y)),n?!e:e){var o=n||e;i.push("Q"),i.push(o.x),i.push(o.y)}return n||e||i.push("L"),i.push(r.x),i.push(r.y),i.join(" ")}function St(t,n,e,r){var i=arguments.length>4&&void 0!==arguments[4]?arguments[4]:1,o=kt(t,n,e,r),u=xt(o);try{return u(i)}catch(t){return null}}function Ot(t,n,e){return t+(n-t)*e}function jt(t,n,e){var r=arguments.length>3&&void 0!==arguments[3]&&arguments[3],i={x:Ot(t.x,n.x,e),y:Ot(t.y,n.y,e)};return r&&(i.a=Mt(t,n)),i}function Mt(t,n){return Math.atan2(n.y-t.y,n.x-t.x)}function Et(t,n,e,r){var i=1-r;return i*i*t+2*i*r*n+r*r*e}function Pt(t,n,e,r){return 2*(1-r)*(n-t)+2*r*(e-n)}function It(t,n,e,r){var i=arguments.length>4&&void 0!==arguments[4]&&arguments[4],o=St(t,n,null,e,r);return o||(o={x:Et(t.x,n.x,e.x,r),y:Et(t.y,n.y,e.y,r)}),i&&(o.a=Rt(t,n,e,r)),o}function Rt(t,n,e,r){return Math.atan2(Pt(t.y,n.y,e.y,r),Pt(t.x,n.x,e.x,r))}function Ft(t,n,e,r,i){var o=i*i;return i*o*(r-t+3*(n-e))+3*o*(t+e-2*n)+3*i*(n-t)+t}function Nt(t,n,e,r,i){var o=1-i;return 3*(o*o*(n-t)+2*o*i*(e-n)+i*i*(r-e))}function Tt(t,n,e,r,i){var o=arguments.length>5&&void 0!==arguments[5]&&arguments[5],u=St(t,n,e,r,i);return u||(u={x:Ft(t.x,n.x,e.x,r.x,i),y:Ft(t.y,n.y,e.y,r.y,i)}),o&&(u.a=qt(t,n,e,r,i)),u}function qt(t,n,e,r,i){return Math.atan2(Nt(t.y,n.y,e.y,r.y,i),Nt(t.x,n.x,e.x,r.x,i))}function Bt(t,n,e){var r=arguments.length>3&&void 0!==arguments[3]&&arguments[3];if(Lt(n)){if(Ct(e))return It(n,e.start,e,t,r)}else if(Lt(e)){if(Vt(n))return It(n,n.end,e,t,r)}else{if(Vt(n))return Ct(e)?Tt(n,n.end,e.start,e,t,r):It(n,n.end,e,t,r);if(Ct(e))return It(n,e.start,e,t,r)}return jt(n,e,t,r)}function Dt(t,n,e){var r=Bt(t,n,e,!0);return r.a=function(t){return arguments.length>1&&void 0!==arguments[1]&&arguments[1]?t+Math.PI:t}(r.a)/b,r}function Lt(t){return!t.type||"corner"===t.type}function Ct(t){return null!=t.start&&!Lt(t)}function Vt(t){return null!=t.end&&!Lt(t)}var Gt=new T;var zt={f:yt,i:B},Yt={f:yt,i:L};function $t(t,n,e){return t.map((function(t){return function(t,n,e){var r=t.v;if(!r||"g"!==r.t||r.s||!r.v||!r.r)return t;var i=e.getElementById(r.r),o=i&&i.querySelectorAll("stop")||[];return r.s=r.v.map((function(t,n){var e=o[n]&&o[n].getAttribute("offset");return{c:t,o:e=p(parseInt(e)/100)}})),delete r.v,t}(t,0,e)}))}var Ut={gt:"gradientTransform",c:{x:"cx",y:"cy"},rd:"r",f:{x:"x1",y:"y1"},to:{x:"x2",y:"y2"}};function Qt(t,n,r,i,o,u,a,l){return $t(t,0,l),n=function(t,n,e){for(var r,i,o,u=t.length-1,a={},l=0;l<=u;l++)(r=t[l]).e&&(r.e=n(r.e)),r.v&&"g"===(i=r.v).t&&i.r&&(o=e.getElementById(i.r))&&(a[i.r]={e:o,s:o.querySelectorAll("stop")});return a}(t,i,l),function(i){var o=r(i,t,Ht);if(!o)return"none";if("c"===o.t)return dt(o.v);if("g"===o.t){if(!n[o.r])return pt(o.r);var u=n[o.r];return function(t,n){for(var e=t.s,r=e.length;r<n.length;r++){var i=e[e.length-1].cloneNode();i.id=Kt(i.id),t.e.appendChild(i),e=t.s=t.e.querySelectorAll("stop")}for(var o=0,u=e.length,a=n.length-1;o<u;o++)e[o].setAttribute("stop-color",dt(n[Math.min(o,a)].c)),e[o].setAttribute("offset",n[Math.min(o,a)].o)}(u,o.s),Object.keys(Ut).forEach((function(t){if(void 0!==o[t])if("object"!==e(Ut[t])){var n,r="gt"===t?(n=o[t],Array.isArray(n)?"matrix("+n.join(" ")+")":""):o[t],i=Ut[t];u.e.setAttribute(i,r)}else Object.keys(Ut[t]).forEach((function(n){if(void 0!==o[t][n]){var e=o[t][n],r=Ut[t][n];u.e.setAttribute(r,e)}}))})),pt(o.r)}return"none"}}function Ht(t,e,r){if(0===t)return e;if(1===t)return r;if(e&&r){var i=e.t;if(i===r.t)switch(e.t){case"c":return{t:i,v:G(t,e.v,r.v)};case"g":if(e.r===r.r){var o={t:i,s:Jt(t,e.s,r.s),r:e.r};return e.gt&&r.gt&&(o.gt=function(t,n,e){var r=n.length;if(r!==e.length)return q(t,n,e);for(var i=new Array(r),o=0;o<r;o++)i[o]=B(t,n[o],e[o]);return i}(t,e.gt,r.gt)),e.c?(o.c=C(t,e.c,r.c),o.rd=D(t,e.rd,r.rd)):e.f&&(o.f=C(t,e.f,r.f),o.to=C(t,e.to,r.to)),o}}if("c"===e.t&&"g"===r.t||"c"===r.t&&"g"===e.t){var u="c"===e.t?e:r,a="g"===e.t?n({},e):n({},r),l=a.s.map((function(t){return{c:u.v,o:t.o}}));return a.s="c"===e.t?Jt(t,l,a.s):Jt(t,a.s,l),a}}return q(t,e,r)}function Jt(t,n,e){if(n.length===e.length)return n.map((function(n,r){return Zt(t,n,e[r])}));for(var r=Math.max(n.length,e.length),i=[],o=0;o<r;o++){var u=Zt(t,n[Math.min(o,n.length-1)],e[Math.min(o,e.length-1)]);i.push(u)}return i}function Zt(t,n,e){return{o:L(t,n.o,e.o||0),c:G(t,n.c,e.c||{})}}function Kt(t){return t.replace(/-fill-([0-9]+)$/,(function(t,n){return"-fill-"+(+n+1)}))}var Wt={fill:Qt,"fill-opacity":Yt,stroke:Qt,"stroke-opacity":Yt,"stroke-width":zt,"stroke-dashoffset":{f:yt,i:B},"stroke-dasharray":{f:function(t){var n=arguments.length>1&&void 0!==arguments[1]?arguments[1]:" ";return t&&t.length>0&&(t=t.map((function(t){return p(t,4)}))),gt(t,n)},i:function(t,n,e){var r,i,o,u=n.length,a=e.length;if(u!==a)if(0===u)n=z(u=a,0);else if(0===a)a=u,e=z(u,0);else{var l=(o=(r=u)*(i=a)/function(t,n){for(var e;n;)e=n,n=t%n,t=e;return t||1}(r,i))<0?-o:o;n=Y(n,Math.floor(l/u)),e=Y(e,Math.floor(l/a)),u=a=l}for(var s=[],f=0;f<u;f++)s.push(p(D(t,n[f],e[f])));return s}},opacity:Yt,transform:function(t,n,r,i){if(!(t=function(t,n){if(!t||"object"!==e(t))return null;var r=!1;for(var i in t)t.hasOwnProperty(i)&&(t[i]&&t[i].length?(t[i].forEach((function(t){t.e&&(t.e=n(t.e))})),r=!0):delete t[i]);return r?t:null}(t,i)))return null;var o=function(e,i,o){var u=arguments.length>3&&void 0!==arguments[3]?arguments[3]:null;return t[e]?r(i,t[e],o):n&&n[e]?n[e]:u};return n&&n.a&&t.o?function(n){var e=r(n,t.o,Dt);return Gt.recomposeSelf(e,o("r",n,B,0)+e.a,o("k",n,C),o("s",n,C),o("t",n,C)).toString()}:function(t){return Gt.recomposeSelf(o("o",t,Bt,null),o("r",t,B,0),o("k",t,C),o("s",t,C),o("t",t,C)).toString()}},r:zt,"#size":bt,"#radius":mt,_:function(t,n){if(Array.isArray(t))for(var e=0;e<t.length;e++)this[t[e]]=n;else this[t]=n}},Xt=function(t){!function(t,n){if("function"!=typeof n&&null!==n)throw new TypeError("Super expression must either be null or a function");t.prototype=Object.create(n&&n.prototype,{constructor:{value:t,writable:!0,configurable:!0}}),n&&l(t,n)}(u,t);var n,e,i=(n=u,e=s(),function(){var t,r=a(n);if(e){var i=a(this).constructor;t=Reflect.construct(r,arguments,i)}else t=r.apply(this,arguments);return c(this,t)});function u(){return r(this,u),i.apply(this,arguments)}return o(u,null,[{key:"build",value:function(t){var n=h(a(u),"build",this).call(this,t,Wt);if(!n)return null;n.el,n.options,function(t,n,e){t.play()}(n.player)}}]),u}(vt);return Xt.init(),Xt}));
(function(s,i,o,w,d,a,b){w[o]=w[o]||{};w[o][s]=w[o][s]||[];w[o][s].push(i);})('5c7f360c',{"root":"eqkZB0vHlpr1","version":"2022-05-04","animations":[{"elements":{"eqkZB0vHlpr11":{"transform":{"keys":{"o":[{"t":0,"v":{"x":269.101161,"y":101.362935,"type":"cusp"}},{"t":190,"v":{"x":277.122355,"y":119.362935,"type":"cusp"}},{"t":610,"v":{"x":281.68116,"y":162.182935,"type":"cusp"}},{"t":910,"v":{"x":290.76116,"y":192.049472,"type":"cusp"}},{"t":1080,"v":{"x":306.20116,"y":198.662943,"type":"cusp","start":{"x":306.20116,"y":199.039997},"end":{"x":306.20116,"y":198.285889}}},{"t":1320,"v":{"x":331.04116,"y":196.070003,"type":"cusp"}},{"t":1540,"v":{"x":343.29116,"y":176.302938,"type":"cusp"}},{"t":1790,"v":{"x":351.82116,"y":152.132939,"type":"cusp"}},{"t":1920,"v":{"x":357.91116,"y":140.240004,"type":"cusp"}},{"t":2140,"v":{"x":360.08116,"y":117.623674,"type":"cusp"}},{"t":2300,"v":{"x":367.000002,"y":103.34294,"type":"cusp"}},{"t":2450,"v":{"x":380.90116,"y":96.452941,"type":"cusp"}},{"t":2560,"v":{"x":392.51116,"y":94.032942,"type":"cusp"}},{"t":2660,"v":{"x":402.05116,"y":96.490007,"type":"cusp"}},{"t":2760,"v":{"x":409.43116,"y":104.416824,"type":"cusp"}},{"t":2910,"v":{"x":412.500002,"y":118.990008,"type":"cusp","start":{"x":412.36116,"y":117.623678},"end":{"x":412.638844,"y":120.356338}}},{"t":3000,"v":{"x":411.500002,"y":128.422943,"type":"cusp"}}]}}},"eqkZB0vHlpr12":{"transform":{"keys":{"o":[{"t":0,"v":{"x":264.648803,"y":104.416817,"type":"cusp"}},{"t":260,"v":{"x":269.10116,"y":147.472935,"type":"cusp","start":{"x":269.10116,"y":144.882935},"end":{"x":269.10116,"y":150.062935}}},{"t":540,"v":{"x":277.122353,"y":192.122935,"type":"cusp","start":{"x":277.122353,"y":192.049471},"end":{"x":277.122353,"y":192.196399}}},{"t":740,"v":{"x":290.761158,"y":222.242935,"type":"cusp","start":{"x":290.201158,"y":221.88836},"end":{"x":291.321158,"y":222.59751}}},{"t":1130,"v":{"x":324.961158,"y":275.522935,"type":"cusp"}},{"t":1320,"v":{"x":331.041158,"y":306.352935,"type":"cusp","start":{"x":331.041158,"y":302.592935},"end":{"x":331.041158,"y":310.112935}}},{"t":1480,"v":{"x":346.451158,"y":327.455174,"type":"cusp"}},{"t":1610,"v":{"x":363.441158,"y":339.702935,"type":"cusp","start":{"x":363.441158,"y":338.876817},"end":{"x":363.441158,"y":340.529053}}},{"t":1720,"v":{"x":380.901158,"y":339.702935,"type":"cusp","start":{"x":376.831158,"y":339.702935},"end":{"x":384.971158,"y":339.702935}}},{"t":1840,"v":{"x":397.211158,"y":327.455174,"type":"cusp","start":{"x":397.211158,"y":327.732659},"end":{"x":397.211158,"y":327.177689}}},{"t":1960,"v":{"x":409.431158,"y":312.752935,"type":"cusp","start":{"x":409.431158,"y":312.932935},"end":{"x":409.431158,"y":312.572935}}},{"t":2100,"v":{"x":418.431158,"y":290.49,"type":"cusp"}},{"t":2220,"v":{"x":428.511158,"y":273.622935,"type":"cusp"}},{"t":2340,"v":{"x":441.531158,"y":259.402935,"type":"cusp"}},{"t":2420,"v":{"x":454.441158,"y":255.982935,"type":"cusp"}},{"t":2500,"v":{"x":466.921158,"y":259.402935,"type":"cusp"}},{"t":2590,"v":{"x":479.221158,"y":266.212935,"type":"cusp"}},{"t":2700,"v":{"x":488.271158,"y":282.179567,"type":"cusp","start":{"x":488.271158,"y":281.902934},"end":{"x":488.271158,"y":282.4562}}},{"t":2830,"v":{"x":486.5,"y":302.592935,"type":"cusp"}},{"t":2900,"v":{"x":482.181158,"y":313.752935,"type":"cusp"}},{"t":3000,"v":{"x":466.921158,"y":320.499568,"type":"cusp"}}]}}},"eqkZB0vHlpr13":{"transform":{"data":{"t":{"x":3.002838,"y":0}},"keys":{"o":[{"t":0,"v":{"x":257.336428,"y":104.138949,"type":"cusp"}},{"t":140,"v":{"x":257.336428,"y":124.872935,"type":"cusp"}},{"t":360,"v":{"x":259.768551,"y":155.49,"type":"cusp"}},{"t":650,"v":{"x":264.648803,"y":197.032936,"type":"cusp"}},{"t":900,"v":{"x":269.10116,"y":232.390002,"type":"cusp","start":{"x":269.10116,"y":226.639076},"end":{"x":269.10116,"y":238.140928}}},{"t":1210,"v":{"x":286.20116,"y":273.622937,"type":"cusp","start":{"x":281.68116,"y":266.212937},"end":{"x":290.72116,"y":281.032937}}},{"t":1320,"v":{"x":293.88116,"y":287.632937,"type":"cusp"}},{"t":1460,"v":{"x":299.39116,"y":306.352937,"type":"cusp"}},{"t":1650,"v":{"x":299.39116,"y":333.622937,"type":"cusp"}},{"t":1820,"v":{"x":293.88116,"y":357.922937,"type":"cusp"}},{"t":1980,"v":{"x":293.88116,"y":380.370441,"type":"cusp"}},{"t":2100,"v":{"x":299.39116,"y":395.722937,"type":"cusp"}},{"t":2230,"v":{"x":312.78116,"y":409.202937,"type":"cusp"}},{"t":2290,"v":{"x":319.26116,"y":415.892937,"type":"cusp"}},{"t":2430,"v":{"x":337.41116,"y":421.552937,"type":"cusp"}},{"t":2520,"v":{"x":350.42116,"y":415.892937,"type":"cusp"}},{"t":2610,"v":{"x":361.17116,"y":409.202937,"type":"cusp"}},{"t":2680,"v":{"x":368.29116,"y":402.882938,"type":"cusp"}},{"t":2770,"v":{"x":370.05116,"y":389.490004,"type":"cusp"}},{"t":2840,"v":{"x":368.30116,"y":380.370443,"type":"cusp"}},{"t":2930,"v":{"x":361.17116,"y":369.732939,"type":"cusp"}},{"t":3000,"v":{"x":351.82116,"y":365.490005,"type":"cusp"}}]}}},"eqkZB0vHlpr16":{"transform":{"keys":{"o":[{"t":0,"v":{"x":269.101158,"y":103.532935,"type":"cusp"}},{"t":280,"v":{"x":269.10116,"y":137.912935,"type":"cusp"}},{"t":640,"v":{"x":281.681158,"y":179.240001,"type":"cusp"}},{"t":820,"v":{"x":290.761158,"y":200.070002,"type":"cusp"}},{"t":1060,"v":{"x":308.931158,"y":221.888363,"type":"cusp"}},{"t":1240,"v":{"x":331.041158,"y":226.639077,"type":"cusp"}},{"t":1420,"v":{"x":350.42116,"y":215.415173,"type":"cusp"}},{"t":1580,"v":{"x":368.30116,"y":208.012941,"type":"cusp"}},{"t":1690,"v":{"x":376.831158,"y":198.662941,"type":"cusp"}},{"t":1830,"v":{"x":389,"y":185.700005,"type":"cusp","start":{"x":389,"y":185.96294},"end":{"x":389,"y":185.43707}}},{"t":2000,"v":{"x":399.551158,"y":168.802941,"type":"cusp"}},{"t":2180,"v":{"x":418.431158,"y":156.462941,"type":"cusp"}},{"t":2270,"v":{"x":428.511158,"y":151.490006,"type":"cusp"}},{"t":2380,"v":{"x":441.531158,"y":149.770006,"type":"cusp"}},{"t":2520,"v":{"x":455.801158,"y":157.990006,"type":"cusp"}},{"t":2580,"v":{"x":459.471158,"y":164.152942,"type":"cusp"}},{"t":2660,"v":{"x":466.921158,"y":171.980007,"type":"cusp"}},{"t":2760,"v":{"x":466.921158,"y":183.972942,"type":"cusp"}},{"t":2850,"v":{"x":462.5,"y":193.732942,"type":"cusp"}},{"t":2910,"v":{"x":458.201158,"y":200.070008,"type":"cusp"}},{"t":3000,"v":{"x":448.611158,"y":204.432943,"type":"cusp"}}]}}}},"s":"MADA1ZGRhODFjM2Q0ZDPFjMGQzYzhjZWNkODED5OTkyOGY4ZjhmOGI4EMUdjM2M4ZDFjNGMyZNDNjOEdjZWNkODE5OTNkwOGI4MWM4ZDNjNGQGxYzBEZDNjOGNlY2RkCMjgxOTlIOGY4YjgxYAzVjOGNiSmNiODE5OTYkwOGI4MWMwY2JkM2MR0SmQxY2RjMGQzVmM0DODE5OWM1YzBMY2JVZUDJjNDhiODFkMmNmYzJRjNGMzODFPOTk5MDhYiODFjNWNmZDI4MUg5MOUI5MDhmOGZkYw|"}],"options":"MKDAxMEM4ODJmODA4MVRA2ZTdmRTgxMmY0NzJNmNzk3YzZlNzEyZjhhY"},'__SVGATOR_PLAYER__',window,document)
]]></script>
</svg>
